<?xml version="1.0" encoding="utf-8"?>
<!-- Generator: Adobe Illustrator 19.2.0, SVG Export Plug-In . SVG Version: 6.00 Build 0)  -->
<svg xmlns="http://www.w3.org/2000/svg" xmlns:xlink="http://www.w3.org/1999/xlink" version="1.1" id="cpuusage" x="0px" y="0px" viewBox="0 0 206.6276 210.1444" enable-background="new 0 0 206.6276 210.1444" xml:space="preserve" width="512" height="512">
<g>
	<path fill="#5CB0FF" d="M29.0739,56.7714l63.2109,44.8828c3.9727,2.8242,10.9492,2.8242,14.9258,0l63.2109-44.8828   c1.3887-0.9844,2.1777-2.0977,2.1172-2.9805c-0.0625-0.8809-1-1.873-2.5078-2.6523l-61.4688-31.7617   c-2.3477-1.2129-5.5801-1.8184-8.8145-1.8184c-3.2324,0-6.4668,0.6055-8.8145,1.8184L29.4645,51.1385   c-1.502,0.7773-2.4355,1.7695-2.498,2.6562C26.9039,54.6776,27.691,55.7909,29.0739,56.7714z"/>
	<path fill="#1C71DA" d="M24.441,63.2948l63.2109,44.8828c3.3926,2.4082,7.7422,3.6113,12.0957,3.6113   c4.3516,0,8.7031-1.2051,12.0957-3.6113l63.209-44.8828c3.7363-2.6504,5.7285-6.3203,5.4668-10.0645   c-0.2637-3.7441-2.748-7.0957-6.8164-9.1973L112.234,12.2714c-6.998-3.6211-17.9707-3.6211-24.9727,0L25.7926,44.0331   c-4.0625,2.0996-6.543,5.4531-6.8066,9.2012C18.7223,56.9784,20.7125,60.6464,24.441,63.2948z M29.4645,51.1385l61.4688-31.7617   c2.3477-1.2129,5.582-1.8184,8.8145-1.8184c3.2344,0,6.4668,0.6055,8.8145,1.8184l61.4688,31.7617   c1.5078,0.7793,2.4453,1.7715,2.5078,2.6523c0.0605,0.8828-0.7285,1.9961-2.1172,2.9805l-63.2109,44.8828   c-3.9766,2.8242-10.9531,2.8242-14.9258,0L29.0739,56.7714c-1.3828-0.9805-2.1699-2.0938-2.1074-2.9766   C27.0289,52.9081,27.9625,51.9159,29.4645,51.1385z"/>
	<path fill="#1C71DA" d="M173.7028,76.0331l-3.6719,7.1055c1.5078,0.7793,2.4453,1.7715,2.5078,2.6523   c0.0605,0.8828-0.7285,1.9961-2.1172,2.9805l-63.2109,44.8828c-3.9766,2.8242-10.9531,2.8242-14.9258,0L29.0739,88.7714   c-1.3828-0.9805-2.1699-2.0938-2.1074-2.9766c0.0625-0.8867,0.9961-1.8789,2.498-2.6562l-3.6719-7.1055   c-4.0625,2.0996-6.543,5.4531-6.8066,9.2012c-0.2637,3.7441,1.7266,7.4121,5.4551,10.0605l63.2109,44.8828   c3.3926,2.4082,7.7422,3.6113,12.0957,3.6113c4.3516,0,8.7031-1.2051,12.0957-3.6113l63.209-44.8828   c3.7363-2.6504,5.7285-6.3203,5.4668-10.0645C180.2555,81.4862,177.7711,78.1346,173.7028,76.0331z"/>
	<path fill="#1C71DA" d="M173.7028,108.0331l-3.6719,7.1055c1.5078,0.7793,2.4453,1.7715,2.5078,2.6523   c0.0605,0.8828-0.7285,1.9961-2.1172,2.9805l-63.2109,44.8828c-3.9766,2.8242-10.9531,2.8242-14.9258,0l-63.2109-44.8828   c-1.3828-0.9805-2.1699-2.0938-2.1074-2.9766c0.0625-0.8867,0.9961-1.8789,2.498-2.6562l-3.6719-7.1055   c-4.0625,2.0996-6.543,5.4531-6.8066,9.2012c-0.2637,3.7441,1.7266,7.4121,5.4551,10.0605l63.2109,44.8828   c3.3926,2.4082,7.7422,3.6113,12.0957,3.6113c4.3516,0,8.7031-1.2051,12.0957-3.6113l63.209-44.8828   c3.7363-2.6504,5.7285-6.3203,5.4668-10.0645C180.2555,113.4862,177.7711,110.1346,173.7028,108.0331z"/>
	<path fill="#1C71DA" d="M173.7028,140.0331l-3.6719,7.1055c1.5078,0.7793,2.4453,1.7715,2.5078,2.6523   c0.0605,0.8828-0.7285,1.9961-2.1172,2.9805l-63.2109,44.8828c-3.9766,2.8242-10.9531,2.8242-14.9258,0l-63.2109-44.8828   c-1.3828-0.9805-2.1699-2.0938-2.1074-2.9766c0.0625-0.8867,0.9961-1.8789,2.498-2.6562l-3.6719-7.1055   c-4.0625,2.0996-6.543,5.4531-6.8066,9.2012c-0.2637,3.7441,1.7266,7.4121,5.4551,10.0605l63.2109,44.8828   c3.3926,2.4082,7.7422,3.6113,12.0957,3.6113c4.3516,0,8.7031-1.2051,12.0957-3.6113l63.209-44.8828   c3.7363-2.6504,5.7285-6.3203,5.4668-10.0645C180.2555,145.4862,177.7711,142.1346,173.7028,140.0331z"/>
</g>

</svg>
