<svg width="116" height="79" viewBox="0 0 116 79" fill="none" xmlns="http://www.w3.org/2000/svg">
<g clip-path="url(#clip0_45_13)">
<path d="M81.8357 39.3741H80.8251C80.6556 39.3741 80.493 39.3067 80.3731 39.1869C80.2532 39.067 80.1859 38.9044 80.1859 38.7349C80.1859 38.5653 80.2532 38.4027 80.3731 38.2829C80.493 38.163 80.6556 38.0956 80.8251 38.0956H81.8357C82.7648 38.096 83.6829 37.8952 84.527 37.507C85.3711 37.1188 86.1211 36.5524 86.7255 35.8468C87.3299 35.1412 87.7743 34.313 88.0282 33.4194C88.2822 32.5257 88.3396 31.5876 88.1965 30.6696C88.0534 29.7516 87.7133 28.8755 87.1994 28.1014C86.6856 27.3274 86.0102 26.6738 85.2197 26.1856C84.4293 25.6974 83.5425 25.3861 82.6203 25.2732C81.6981 25.1602 80.7624 25.2483 79.8775 25.5314C79.7719 25.5652 79.6592 25.5709 79.5507 25.548C79.4422 25.525 79.3415 25.4742 79.2585 25.4006C79.1755 25.3269 79.1132 25.2329 79.0776 25.1279C79.0419 25.0228 79.0343 24.9103 79.0553 24.8014C79.1338 24.3975 79.174 23.9871 79.1752 23.5757C79.1765 22.3429 78.8233 21.1358 78.1577 20.0981C77.4921 19.0605 76.5421 18.2361 75.4211 17.7233C74.3001 17.2104 73.0552 17.0307 71.8349 17.2056C70.6146 17.3805 69.4703 17.9025 68.5384 18.7096C68.4595 18.7777 68.3651 18.8256 68.2635 18.8489C68.1618 18.8723 68.056 18.8704 67.9552 18.8435C67.8545 18.8165 67.7619 18.7654 67.6854 18.6945C67.6089 18.6236 67.551 18.535 67.5165 18.4366C66.6964 16.0895 64.9855 14.1595 62.7538 13.0636C60.5222 11.9677 57.9488 11.794 55.5901 12.5801C53.2314 13.3662 51.2768 15.0488 50.1487 17.2644C49.0206 19.48 48.8096 22.0505 49.5614 24.4204C49.5906 24.5122 49.5986 24.6095 49.5849 24.7049C49.5712 24.8003 49.536 24.8914 49.4821 24.9713C49.4282 25.0512 49.3569 25.1178 49.2735 25.1663C49.1902 25.2147 49.097 25.2436 49.0008 25.2509C47.3423 25.3784 45.7976 26.1435 44.6912 27.3855C43.5847 28.6276 43.0024 30.25 43.0666 31.9122C43.1309 33.5744 43.8366 35.1471 45.0356 36.3001C46.2346 37.4531 47.8337 38.0967 49.4971 38.0958C49.6667 38.0958 49.8292 38.1632 49.9491 38.2831C50.069 38.4029 50.1363 38.5655 50.1363 38.7351C50.1363 38.9046 50.069 39.0672 49.9491 39.187C49.8292 39.3069 49.6667 39.3743 49.4971 39.3743C47.5697 39.3751 45.7118 38.654 44.2896 37.353C42.8674 36.0521 41.9841 34.2657 41.8137 32.3458C41.6432 30.4259 42.1981 28.5117 43.3688 26.9806C44.5396 25.4495 46.2414 24.4124 48.1388 24.0736C47.5087 21.4664 47.8769 18.7178 49.1708 16.3683C50.4647 14.0188 52.5908 12.2384 55.1311 11.3771C57.6713 10.5159 60.4418 10.6362 62.8979 11.7143C65.3539 12.7925 67.3178 14.7504 68.4032 17.2032C69.5617 16.4127 70.914 15.9532 72.3143 15.8745C73.7146 15.7957 75.1099 16.1005 76.3497 16.7562C77.5896 17.4118 78.627 18.3934 79.3501 19.5951C80.0733 20.7968 80.4548 22.1731 80.4536 23.5756C80.4536 23.7407 80.448 23.9077 80.4367 24.0753C81.4911 23.8808 82.5744 23.9083 83.6176 24.156C84.6608 24.4036 85.6409 24.8661 86.4953 25.5137C87.3497 26.1614 88.0598 26.9801 88.5801 27.9175C89.1004 28.855 89.4195 29.8906 89.5172 30.9583C89.6148 32.0261 89.4888 33.1024 89.1471 34.1187C88.8054 35.1349 88.2557 36.0688 87.5329 36.8607C86.81 37.6526 85.9301 38.2851 84.9491 38.7179C83.9682 39.1506 82.9078 39.3741 81.8356 39.3741H81.8357Z" fill="white"/>
<path d="M68.6501 21.1806C68.4917 21.1805 68.339 21.1215 68.2216 21.0152C68.1042 20.9089 68.0305 20.7627 68.0147 20.6051C67.9408 19.8637 67.7792 19.1337 67.5334 18.4303C67.4774 18.2702 67.4873 18.0945 67.561 17.9417C67.6346 17.7889 67.7659 17.6716 67.926 17.6157C68.0861 17.5597 68.2618 17.5696 68.4146 17.6432C68.5674 17.7169 68.6847 17.8482 68.7406 18.0083C69.0193 18.807 69.2027 19.6359 69.2868 20.4777C69.2952 20.5612 69.287 20.6456 69.2628 20.726C69.2386 20.8063 69.1987 20.8812 69.1456 20.9461C69.0924 21.0111 69.027 21.065 68.953 21.1047C68.879 21.1444 68.798 21.1691 68.7144 21.1774L68.6501 21.1806Z" fill="white"/>
<path d="M78.8031 27.8612C78.69 27.8611 78.5789 27.8309 78.4812 27.7738C78.3835 27.7167 78.3027 27.6347 78.2471 27.5361C78.1914 27.4376 78.163 27.326 78.1646 27.2128C78.1662 27.0997 78.1979 26.989 78.2563 26.8921C78.6451 26.2483 78.9167 25.5407 79.0584 24.8022C79.0928 24.6379 79.1903 24.4937 79.33 24.4006C79.4697 24.3076 79.6404 24.2733 79.8052 24.305C79.97 24.3367 80.1158 24.4319 80.211 24.5701C80.3062 24.7083 80.3433 24.8784 80.3142 25.0437C80.1438 25.9301 79.8177 26.7793 79.351 27.5519C79.2942 27.6463 79.2138 27.7245 79.1178 27.7787C79.0218 27.8329 78.9134 27.8613 78.8031 27.8612Z" fill="white"/>
<path d="M51.5752 25.5367C51.5117 25.5365 51.4486 25.5269 51.3879 25.5083C50.6153 25.2719 49.8052 25.1827 48.9996 25.2452C48.8311 25.2558 48.6651 25.2002 48.537 25.0902C48.4089 24.9803 48.3287 24.8247 48.3136 24.6565C48.3072 24.5728 48.3174 24.4887 48.3435 24.4089C48.3696 24.3291 48.4112 24.2553 48.4659 24.1916C48.5205 24.1279 48.5872 24.0756 48.6621 24.0376C48.737 23.9997 48.8186 23.9769 48.9023 23.9705C49.867 23.895 50.8374 24.002 51.7624 24.286C51.9089 24.3309 52.0343 24.4269 52.116 24.5564C52.1976 24.686 52.2301 24.8405 52.2074 24.992C52.1847 25.1434 52.1084 25.2817 51.9924 25.3817C51.8764 25.4817 51.7283 25.5367 51.5752 25.5367Z" fill="white"/>
<path d="M74.4936 39.0029V51.6048H56.8388V39.0029H74.4936ZM74.4936 37.7246H56.8388C56.4998 37.7246 56.1747 37.8593 55.9349 38.099C55.6952 38.3387 55.5605 38.6639 55.5605 39.0029V51.6048C55.5605 51.7727 55.5936 51.9389 55.6578 52.094C55.722 52.2491 55.8162 52.3901 55.9349 52.5088C56.0536 52.6275 56.1945 52.7217 56.3496 52.7859C56.5047 52.8502 56.6709 52.8832 56.8388 52.8832H74.4936C74.6615 52.8832 74.8278 52.8502 74.9829 52.7859C75.1379 52.7217 75.2789 52.6275 75.3976 52.5088C75.5163 52.3901 75.6104 52.2491 75.6747 52.094C75.7389 51.9389 75.7719 51.7727 75.7719 51.6048V39.0029C75.7719 38.6639 75.6372 38.3387 75.3975 38.099C75.1578 37.8593 74.8327 37.7246 74.4936 37.7246Z" fill="white"/>
<path d="M71.7296 38.3634C71.5601 38.3634 71.3976 38.296 71.2777 38.1762C71.1578 38.0563 71.0905 37.8937 71.0905 37.7242V33.113C71.045 31.7048 70.4536 30.3694 69.4414 29.3893C68.4291 28.4092 67.0753 27.8612 65.6663 27.8612C64.2573 27.8612 62.9035 28.4092 61.8913 29.3893C60.879 30.3694 60.2876 31.7048 60.2421 33.113V37.7242C60.2421 37.8937 60.1748 38.0562 60.0549 38.1761C59.9351 38.296 59.7725 38.3633 59.603 38.3633C59.4335 38.3633 59.2709 38.296 59.1511 38.1761C59.0312 38.0562 58.9639 37.8937 58.9639 37.7242V33.113C59.0095 31.3657 59.7356 29.7052 60.9876 28.4854C62.2396 27.2656 63.9185 26.583 65.6665 26.583C67.4144 26.583 69.0933 27.2656 70.3453 28.4854C71.5973 29.7052 72.3235 31.3657 72.3691 33.113V37.7242C72.3691 37.8081 72.3526 37.8913 72.3204 37.9689C72.2883 38.0464 72.2412 38.1169 72.1818 38.1763C72.1224 38.2356 72.0519 38.2827 71.9743 38.3148C71.8967 38.3469 71.8136 38.3634 71.7296 38.3634Z" fill="white"/>
<path d="M65.6665 47.4588C65.5825 47.4588 65.4994 47.4423 65.4219 47.4102C65.3443 47.378 65.2739 47.331 65.2145 47.2716C65.1552 47.2123 65.1081 47.1418 65.076 47.0643C65.0439 46.9867 65.0273 46.9036 65.0273 46.8197V42.7773C65.0273 42.6078 65.0947 42.4452 65.2145 42.3254C65.3344 42.2055 65.497 42.1382 65.6665 42.1382C65.836 42.1382 65.9985 42.2055 66.1184 42.3254C66.2383 42.4452 66.3056 42.6078 66.3056 42.7773V46.8198C66.3056 46.9893 66.2382 47.1518 66.1184 47.2717C65.9985 47.3915 65.836 47.4588 65.6665 47.4588Z" fill="white"/>
<path d="M29.5177 78.5742H3.17987C2.50198 78.5735 1.85206 78.3038 1.37272 77.8245C0.89338 77.3452 0.62377 76.6953 0.623047 76.0174L0.623047 69.7951C0.62382 69.1172 0.893447 68.4673 1.37278 67.988C1.85211 67.5087 2.50199 67.2391 3.17987 67.2383H29.5177C30.1956 67.2391 30.8455 67.5087 31.3248 67.988C31.8041 68.4673 32.0738 69.1172 32.0745 69.7951V76.0174C32.0738 76.6953 31.8042 77.3452 31.3249 77.8245C30.8455 78.3038 30.1956 78.5735 29.5177 78.5742ZM3.17987 68.5167C2.84098 68.5171 2.5161 68.652 2.27648 68.8916C2.03685 69.1312 1.90203 69.4561 1.9016 69.795V76.0174C1.90203 76.3562 2.03685 76.6811 2.27648 76.9208C2.5161 77.1604 2.84098 77.2952 3.17987 77.2956H29.5177C29.8566 77.2952 30.1815 77.1604 30.4211 76.9208C30.6607 76.6811 30.7956 76.3562 30.796 76.0174V69.7951C30.7956 69.4562 30.6607 69.1313 30.4211 68.8917C30.1815 68.6521 29.8566 68.5173 29.5177 68.5168L3.17987 68.5167Z" fill="white"/>
<path d="M29.5177 62.7691H3.17987C2.50199 62.7683 1.85211 62.4987 1.37278 62.0194C0.893447 61.54 0.62382 60.8901 0.623047 60.2123L0.623047 53.9897C0.62377 53.3118 0.89338 52.6619 1.37272 52.1825C1.85206 51.7032 2.50198 51.4336 3.17987 51.4329H29.5177C30.1956 51.4336 30.8455 51.7032 31.3249 52.1825C31.8042 52.6619 32.0738 53.3118 32.0745 53.9897V60.2123C32.0738 60.8901 31.8041 61.54 31.3248 62.0194C30.8455 62.4987 30.1956 62.7683 29.5177 62.7691ZM3.17987 52.7113C2.84098 52.7117 2.5161 52.8465 2.27647 53.0861C2.03684 53.3258 1.90203 53.6507 1.9016 53.9895V60.2121C1.90203 60.551 2.03685 60.8759 2.27648 61.1155C2.5161 61.3552 2.84098 61.49 3.17987 61.4904H29.5177C29.8566 61.49 30.1815 61.3552 30.4211 61.1155C30.6607 60.8759 30.7956 60.551 30.796 60.2121V53.9897C30.7956 53.6508 30.6608 53.3259 30.4211 53.0863C30.1815 52.8466 29.8566 52.7118 29.5177 52.7114L3.17987 52.7113Z" fill="white"/>
<path d="M29.5177 46.9643H3.17987C2.50198 46.9636 1.85206 46.6939 1.37272 46.2146C0.89338 45.7353 0.62377 45.0854 0.623047 44.4075L0.623047 38.1852C0.62377 37.5073 0.89338 36.8574 1.37272 36.3781C1.85206 35.8987 2.50198 35.6291 3.17987 35.6284H29.5177C30.1956 35.6291 30.8455 35.8987 31.3249 36.3781C31.8042 36.8574 32.0738 37.5073 32.0745 38.1852V44.4075C32.0738 45.0854 31.8042 45.7353 31.3249 46.2146C30.8455 46.6939 30.1956 46.9636 29.5177 46.9643ZM3.17987 36.9068C2.84098 36.9072 2.5161 37.0421 2.27648 37.2817C2.03685 37.5213 1.90203 37.8462 1.9016 38.1851V44.4073C1.90203 44.7462 2.03685 45.0711 2.27648 45.3107C2.5161 45.5503 2.84098 45.6851 3.17987 45.6856H29.5177C29.8566 45.6851 30.1815 45.5503 30.4211 45.3107C30.6607 45.0711 30.7956 44.7462 30.796 44.4073V38.1852C30.7956 37.8464 30.6607 37.5215 30.4211 37.2818C30.1815 37.0422 29.8566 36.9074 29.5177 36.907L3.17987 36.9068Z" fill="white"/>
<path d="M16.3491 52.7117C16.2652 52.7117 16.1821 52.6952 16.1045 52.663C16.027 52.6309 15.9565 52.5838 15.8972 52.5245C15.8378 52.4651 15.7907 52.3947 15.7586 52.3171C15.7265 52.2396 15.71 52.1565 15.71 52.0726V46.3252C15.71 46.1557 15.7773 45.9931 15.8972 45.8733C16.0171 45.7534 16.1796 45.686 16.3492 45.686C16.5187 45.686 16.6813 45.7534 16.8012 45.8733C16.921 45.9931 16.9884 46.1557 16.9884 46.3252V52.0725C16.9884 52.1564 16.9719 52.2395 16.9397 52.3171C16.9076 52.3947 16.8605 52.4652 16.8012 52.5245C16.7418 52.5839 16.6713 52.631 16.5937 52.6631C16.5162 52.6952 16.433 52.7117 16.3491 52.7117Z" fill="white"/>
<path d="M16.3491 68.5164C16.2652 68.5164 16.1821 68.4998 16.1045 68.4677C16.027 68.4356 15.9565 68.3885 15.8972 68.3292C15.8378 68.2698 15.7907 68.1994 15.7586 68.1218C15.7265 68.0443 15.71 67.9612 15.71 67.8772V62.1299C15.71 61.9604 15.7773 61.7978 15.8972 61.6779C16.0171 61.5581 16.1796 61.4907 16.3492 61.4907C16.5187 61.4907 16.6813 61.5581 16.8012 61.6779C16.921 61.7978 16.9884 61.9604 16.9884 62.1299V67.8772C16.9884 67.9611 16.9719 68.0443 16.9397 68.1218C16.9076 68.1994 16.8605 68.2699 16.8012 68.3292C16.7418 68.3886 16.6713 68.4357 16.5937 68.4678C16.5162 68.4999 16.433 68.5164 16.3491 68.5164Z" fill="white"/>
<path d="M25.9165 42.5343C26.6002 42.5343 27.1544 41.9801 27.1544 41.2964C27.1544 40.6128 26.6002 40.0586 25.9165 40.0586C25.2329 40.0586 24.6787 40.6128 24.6787 41.2964C24.6787 41.9801 25.2329 42.5343 25.9165 42.5343Z" fill="white"/>
<path d="M25.9165 58.3387C26.6002 58.3387 27.1544 57.7845 27.1544 57.1009C27.1544 56.4172 26.6002 55.863 25.9165 55.863C25.2329 55.863 24.6787 56.4172 24.6787 57.1009C24.6787 57.7845 25.2329 58.3387 25.9165 58.3387Z" fill="white"/>
<path d="M25.9165 74.1441C26.6002 74.1441 27.1544 73.5899 27.1544 72.9063C27.1544 72.2227 26.6002 71.6685 25.9165 71.6685C25.2329 71.6685 24.6787 72.2227 24.6787 72.9063C24.6787 73.5899 25.2329 74.1441 25.9165 74.1441Z" fill="white"/>
<path d="M114.984 39.3513C114.814 39.3513 114.652 39.284 114.532 39.1641C114.412 39.0443 114.345 38.8817 114.345 38.7122V3.9095C114.344 3.21191 114.067 2.54311 113.573 2.04983C113.08 1.55655 112.411 1.27907 111.714 1.27827H19.6195C18.9219 1.27909 18.2532 1.55656 17.7599 2.04981C17.2667 2.54306 16.9892 3.21181 16.9884 3.90937V29.537C16.9884 29.7065 16.921 29.8691 16.8012 29.989C16.6813 30.1089 16.5187 30.1762 16.3492 30.1762C16.1796 30.1762 16.0171 30.1089 15.8972 29.989C15.7773 29.8691 15.71 29.7065 15.71 29.537V3.9095C15.7112 2.873 16.1235 1.87931 16.8564 1.1464C17.5893 0.413486 18.583 0.001207 19.6195 0L111.714 0C112.75 0.00120702 113.744 0.413487 114.477 1.1464C115.21 1.87931 115.622 2.87301 115.623 3.9095V38.7121C115.623 38.7961 115.607 38.8792 115.574 38.9568C115.542 39.0343 115.495 39.1048 115.436 39.1641C115.377 39.2235 115.306 39.2706 115.229 39.3027C115.151 39.3348 115.068 39.3513 114.984 39.3513Z" fill="white"/>
<path d="M114.984 6.65513H23.5396C23.3701 6.65513 23.2075 6.58779 23.0876 6.46791C22.9677 6.34804 22.9004 6.18545 22.9004 6.01592C22.9004 5.84639 22.9677 5.68381 23.0876 5.56393C23.2075 5.44405 23.3701 5.37671 23.5396 5.37671H114.984C115.153 5.37671 115.316 5.44405 115.436 5.56393C115.556 5.68381 115.623 5.84639 115.623 6.01592C115.623 6.18545 115.556 6.34804 115.436 6.46791C115.316 6.58779 115.153 6.65513 114.984 6.65513Z" fill="white"/>
<path d="M111.315 65.9035H39.5859C39.4164 65.9035 39.2538 65.8362 39.134 65.7163C39.0141 65.5965 38.9468 65.4339 38.9468 65.2644C38.9468 65.0949 39.0141 64.9323 39.134 64.8124C39.2538 64.6926 39.4164 64.6252 39.5859 64.6252H111.315C112.118 64.6245 112.888 64.3051 113.456 63.7371C114.024 63.1692 114.344 62.3991 114.345 61.5959V51.3916C114.345 51.2221 114.412 51.0595 114.532 50.9396C114.652 50.8198 114.814 50.7524 114.984 50.7524C115.153 50.7524 115.316 50.8198 115.436 50.9396C115.556 51.0595 115.623 51.2221 115.623 51.3916V61.5958C115.622 62.7379 115.167 63.8329 114.36 64.6404C113.552 65.448 112.457 65.9023 111.315 65.9035Z" fill="white"/>
<path d="M114.984 58.654H31.4353C31.2658 58.654 31.1032 58.5867 30.9833 58.4668C30.8635 58.3469 30.7961 58.1844 30.7961 58.0149C30.7961 57.8454 30.8635 57.6828 30.9833 57.5629C31.1032 57.4431 31.2658 57.3757 31.4353 57.3757H114.984C115.153 57.3757 115.316 57.4431 115.436 57.5629C115.556 57.6828 115.623 57.8454 115.623 58.0149C115.623 58.1844 115.556 58.3469 115.436 58.4668C115.316 58.5867 115.153 58.654 114.984 58.654Z" fill="white"/>
<path d="M55.2058 74.3249C55.0363 74.3249 54.8737 74.2576 54.7539 74.1377C54.634 74.0179 54.5667 73.8553 54.5667 73.6858V65.3698C54.5667 65.2003 54.634 65.0378 54.7539 64.9179C54.8737 64.7981 55.0363 64.7307 55.2058 64.7307C55.3753 64.7307 55.5379 64.7981 55.6577 64.9179C55.7776 65.0378 55.8449 65.2003 55.8449 65.3698V73.6857C55.8449 73.7697 55.8284 73.8528 55.7963 73.9303C55.7642 74.0079 55.7171 74.0784 55.6577 74.1377C55.5984 74.1971 55.5279 74.2441 55.4504 74.2763C55.3728 74.3084 55.2897 74.3249 55.2058 74.3249Z" fill="white"/>
<path d="M76.1267 74.3252C75.9572 74.3252 75.7946 74.2578 75.6747 74.138C75.5549 74.0181 75.4875 73.8555 75.4875 73.686V65.3701C75.4875 65.2006 75.5549 65.038 75.6747 64.9182C75.7946 64.7983 75.9572 64.731 76.1267 64.731C76.2962 64.731 76.4588 64.7983 76.5786 64.9182C76.6985 65.038 76.7658 65.2006 76.7658 65.3701V73.686C76.7658 73.7699 76.7493 73.853 76.7172 73.9306C76.6851 74.0081 76.638 74.0786 76.5786 74.138C76.5193 74.1973 76.4488 74.2444 76.3713 74.2765C76.2937 74.3086 76.2106 74.3252 76.1267 74.3252Z" fill="white"/>
<path d="M82.5061 78.5738H76.1315C76.0476 78.5738 75.9645 78.5572 75.8869 78.5251C75.8094 78.493 75.7389 78.4459 75.6796 78.3866C75.6202 78.3272 75.5732 78.2568 75.541 78.1792C75.5089 78.1017 75.4924 78.0186 75.4924 77.9346C75.4924 77.8507 75.5089 77.7676 75.541 77.69C75.5732 77.6125 75.6202 77.542 75.6796 77.4827C75.7389 77.4233 75.8094 77.3763 75.8869 77.3442C75.9645 77.312 76.0476 77.2955 76.1315 77.2955H82.5061C82.6603 77.2954 82.8081 77.2341 82.9171 77.1251C83.0262 77.0161 83.0876 76.8684 83.0878 76.7142V75.3749C83.0877 75.2206 83.0264 75.0728 82.9173 74.9637C82.8082 74.8546 82.6603 74.7933 82.5061 74.7931H48.8268C48.6725 74.7933 48.5246 74.8546 48.4155 74.9637C48.3065 75.0728 48.2451 75.2206 48.245 75.3749V76.7142C48.2452 76.8684 48.3066 77.0161 48.4157 77.1251C48.5248 77.2341 48.6726 77.2954 48.8268 77.2955H65.0016C65.1711 77.2955 65.3337 77.3628 65.4536 77.4827C65.5734 77.6026 65.6408 77.7651 65.6408 77.9346C65.6408 78.1041 65.5734 78.2667 65.4536 78.3866C65.3337 78.5064 65.1711 78.5738 65.0016 78.5738H48.8268C48.3336 78.5732 47.8608 78.3771 47.5121 78.0285C47.1634 77.6798 46.9672 77.207 46.9666 76.7139V75.3746C46.9671 74.8814 47.1633 74.4086 47.512 74.0599C47.8608 73.7112 48.3336 73.515 48.8268 73.5144H82.5061C82.9992 73.515 83.472 73.7112 83.8208 74.0599C84.1695 74.4086 84.3657 74.8814 84.3662 75.3746V76.7139C84.3656 77.207 84.1695 77.6798 83.8207 78.0285C83.472 78.3771 82.9992 78.5732 82.5061 78.5738Z" fill="white"/>
</g>
<defs>
<clipPath id="clip0_45_13">
<rect width="115" height="78.5738" fill="white" transform="translate(0.623047)"/>
</clipPath>
</defs>
</svg>
