<svg width="142" height="68" viewBox="0 0 142 68" fill="none" xmlns="http://www.w3.org/2000/svg">
<path d="M112.275 62.3275H29.725C23.2114 62.3275 16.9645 59.3539 12.3587 54.0608C7.75282 48.7678 5.16528 41.5888 5.16528 34.1033C5.16528 26.6178 7.75282 19.4389 12.3587 14.1458C16.9645 8.85276 23.2114 5.87915 29.725 5.87915H112.275C118.789 5.87915 125.036 8.85276 129.642 14.1458C134.248 19.4389 136.835 26.6178 136.835 34.1033C136.835 41.5888 134.248 48.7678 129.642 54.0608C125.036 59.3539 118.789 62.3275 112.275 62.3275ZM29.725 7.6466C23.6193 7.6466 17.7636 10.434 13.4462 15.3956C9.12876 20.3572 6.70326 27.0866 6.70326 34.1033C6.70326 41.1201 9.12876 47.8495 13.4462 52.8111C17.7636 57.7727 23.6193 60.5601 29.725 60.5601H112.275C118.381 60.5601 124.237 57.7727 128.554 52.8111C132.872 47.8495 135.297 41.1201 135.297 34.1033C135.297 27.0866 132.872 20.3572 128.554 15.3956C124.237 10.434 118.381 7.6466 112.275 7.6466H29.725Z" fill="white"/>
<path d="M112.528 67.9719H29.4717C25.6014 67.9719 21.769 67.0959 18.1933 65.3938C14.6177 63.6917 11.3688 61.1969 8.63205 58.0519C5.89535 54.9069 3.72449 51.1732 2.2434 47.064C0.762307 42.9548 0 38.5506 0 34.1029C0 29.6552 0.762307 25.251 2.2434 21.1418C3.72449 17.0326 5.89535 13.2989 8.63205 10.1539C11.3688 7.00886 14.6177 4.51409 18.1933 2.81201C21.769 1.10993 25.6014 0.233887 29.4717 0.233887C29.6756 0.233887 29.8712 0.326993 30.0154 0.492724C30.1596 0.658456 30.2407 0.883235 30.2407 1.11761C30.2407 1.35199 30.1596 1.57677 30.0154 1.7425C29.8712 1.90823 29.6756 2.00134 29.4717 2.00134C22.0632 2.00134 14.9582 5.38346 9.71957 11.4037C4.48099 17.4239 1.53798 25.589 1.53798 34.1029C1.53798 42.6168 4.48099 50.7819 9.71957 56.8021C14.9582 62.8223 22.0632 66.2045 29.4717 66.2045H112.528C119.937 66.2045 127.042 62.8223 132.281 56.8021C137.519 50.7819 140.462 42.6168 140.462 34.1029C140.462 25.589 137.519 17.4239 132.281 11.4037C127.042 5.38346 119.937 2.00134 112.528 2.00134H47.1683C46.9643 2.00134 46.7687 1.90823 46.6245 1.7425C46.4803 1.57677 46.3993 1.35199 46.3993 1.11761C46.3993 0.883235 46.4803 0.658456 46.6245 0.492724C46.7687 0.326993 46.9643 0.233887 47.1683 0.233887L112.528 0.233887C116.399 0.233887 120.231 1.10993 123.807 2.81201C127.382 4.51409 130.631 7.00886 133.368 10.1539C136.105 13.2989 138.276 17.0326 139.757 21.1418C141.238 25.251 142 29.6552 142 34.1029C142 38.5506 141.238 42.9548 139.757 47.064C138.276 51.1732 136.105 54.9069 133.368 58.0519C130.631 61.1969 127.382 63.6917 123.807 65.3938C120.231 67.0959 116.399 67.9719 112.528 67.9719Z" fill="white"/>
<path d="M64.7545 50.5537H34.3869C34.183 50.5537 33.9874 50.4606 33.8432 50.2949C33.6989 50.1291 33.6179 49.9043 33.6179 49.6699C33.6179 49.4355 33.6989 49.2107 33.8432 49.045C33.9874 48.8792 34.183 48.7861 34.3869 48.7861H64.7545C64.9585 48.7861 65.1541 48.8792 65.2983 49.045C65.4425 49.2107 65.5235 49.4355 65.5235 49.6699C65.5235 49.9043 65.4425 50.1291 65.2983 50.2949C65.1541 50.4606 64.9585 50.5537 64.7545 50.5537Z" fill="white"/>
<path d="M115.839 47.5499C112.082 47.3725 108.534 45.5198 105.946 42.3851C104.426 40.761 103.241 38.7671 102.477 36.549C101.713 34.331 101.389 31.9448 101.531 29.5649C101.533 29.4185 101.491 29.2757 101.411 29.1613C101.332 29.0469 101.22 28.968 101.095 28.9383C100.2 28.6473 99.3867 28.0907 98.7377 27.3244C98.0886 26.5582 97.6264 25.6092 97.3973 24.5727C97.1683 23.5363 97.1805 22.4488 97.4328 21.4195C97.6851 20.3902 98.1685 19.4552 98.8346 18.7085C99.5007 17.9618 100.326 17.4296 101.228 17.1652C102.129 16.9009 103.076 16.9138 103.971 17.2026C104.867 17.4914 105.681 18.046 106.332 18.8107C106.982 19.5753 107.446 20.5232 107.677 21.559V21.5595C107.708 21.6809 107.776 21.7849 107.87 21.8507C107.964 21.9165 108.076 21.9393 108.184 21.9146C110.255 21.7513 112.333 22.1221 114.263 23C116.194 23.878 117.93 25.2408 119.344 26.9888C121.624 29.5207 123.154 32.8124 123.717 36.3983C123.993 37.9202 123.946 39.4961 123.581 40.9928C123.215 42.4895 122.542 43.8632 121.617 44.9979C120.85 45.8434 119.944 46.5046 118.952 46.9428C117.96 47.381 116.901 47.5874 115.839 47.5499ZM102.544 18.7404C101.829 18.7371 101.13 18.9719 100.529 19.4162C100.05 19.7684 99.6465 20.2394 99.3471 20.7946C99.0477 21.3498 98.8604 21.9751 98.7989 22.6245C98.7066 23.6374 98.9282 24.6554 99.4246 25.4991C99.921 26.3429 100.66 26.9584 101.513 27.2373C101.996 27.3768 102.419 27.7132 102.703 28.184C102.986 28.6548 103.112 29.228 103.055 29.797C102.944 31.9079 103.243 34.0208 103.932 35.9821C104.62 37.9434 105.68 39.7038 107.034 41.1354C111.382 46.1311 117.437 47.3026 120.53 43.7482C121.28 42.8078 121.823 41.6742 122.114 40.4427C122.404 39.2112 122.433 37.9176 122.198 36.6706C121.685 33.4548 120.307 30.5052 118.257 28.2384C117.011 26.6811 115.479 25.4626 113.771 24.6717C112.064 23.8809 110.225 23.5375 108.388 23.6665C107.907 23.7458 107.418 23.6198 107.012 23.3124C106.607 23.005 106.314 22.5375 106.188 21.9983C105.941 20.9174 105.345 19.9852 104.522 19.3916C103.93 18.9626 103.244 18.7367 102.544 18.7404Z" fill="white"/>
<path d="M97.2366 22.4681C95.9641 22.4689 94.7432 21.89 93.8415 20.8582C93.3307 20.2744 92.9424 19.5646 92.706 18.7826C92.64 18.5616 92.6528 18.3195 92.7416 18.1093C92.8305 17.8991 92.9882 17.738 93.1803 17.661C93.3723 17.5841 93.583 17.5978 93.7663 17.699C93.9496 17.8001 94.0906 17.9806 94.1584 18.201C94.319 18.7312 94.5825 19.2125 94.9289 19.6084C95.3308 20.0676 95.8297 20.3987 96.3766 20.5693C96.9235 20.7399 97.4997 20.7441 98.0484 20.5815C98.2453 20.5241 98.4539 20.5586 98.6287 20.6774C98.8035 20.7962 98.9303 20.9896 98.9815 21.2155C99.0327 21.4413 99.004 21.6813 98.9018 21.883C98.7996 22.0846 98.6321 22.2316 98.4359 22.2919C98.0443 22.4089 97.6413 22.4681 97.2366 22.4681Z" fill="white"/>
<path d="M101.119 19.0023C101.001 19.0026 100.886 18.972 100.78 18.9128C100.675 18.8536 100.582 18.7675 100.51 18.661C100.438 18.5544 100.388 18.4304 100.365 18.2983C100.341 18.1662 100.344 18.0296 100.373 17.899C100.512 17.2702 100.507 16.6106 100.359 15.9846C100.21 15.3586 99.922 14.7878 99.5237 14.3278C99.1785 13.9291 98.7589 13.626 98.2966 13.4414C98.1049 13.3635 97.9478 13.2016 97.8598 12.9909C97.7717 12.7803 97.7599 12.5381 97.8268 12.3175C97.8937 12.0968 98.0339 11.9156 98.2169 11.8135C98.3998 11.7113 98.6104 11.6966 98.8028 11.7725C99.4842 12.0439 100.103 12.4905 100.611 13.0782C101.198 13.7557 101.621 14.5965 101.841 15.5184C102.06 16.4403 102.068 17.4119 101.863 18.3382C101.82 18.528 101.724 18.6962 101.59 18.8164C101.455 18.9366 101.289 19.002 101.119 19.0023Z" fill="white"/>
<path d="M113.464 24.1625C113.312 24.1624 113.163 24.1106 113.037 24.0135C112.911 23.9164 112.812 23.7784 112.754 23.6169C112.696 23.4555 112.68 23.2778 112.71 23.1064C112.74 22.935 112.813 22.7776 112.92 22.654L117.995 16.8225L117.946 9.40091C117.945 9.16665 118.024 8.94131 118.167 8.7744C118.31 8.60749 118.505 8.51266 118.709 8.51074H118.715C118.918 8.51075 119.113 8.60297 119.257 8.7673C119.401 8.93162 119.482 9.15473 119.484 9.38798L119.537 17.5492L114.008 23.9036C113.936 23.9858 113.852 24.0509 113.758 24.0954C113.665 24.1398 113.565 24.1626 113.464 24.1625Z" fill="white"/>
<path d="M122.487 34.5323C122.335 34.5323 122.186 34.4804 122.06 34.3833C121.933 34.2862 121.835 34.1482 121.777 33.9867C121.718 33.8253 121.703 33.6476 121.733 33.4762C121.762 33.3048 121.836 33.1473 121.943 33.0237L127.473 26.6694L134.574 26.7303C134.778 26.7312 134.974 26.8252 135.117 26.9916C135.261 27.158 135.341 27.3832 135.34 27.6175C135.34 27.8519 135.258 28.0764 135.113 28.2415C134.968 28.4065 134.772 28.4988 134.568 28.4979H134.562L128.105 28.4422L123.031 34.2735C122.959 34.3557 122.874 34.4209 122.781 34.4653C122.688 34.5097 122.588 34.5325 122.487 34.5323Z" fill="white"/>
<path d="M118.944 28.234C118.792 28.234 118.643 28.1821 118.517 28.085C118.391 27.9879 118.292 27.8499 118.234 27.6884C118.176 27.527 118.16 27.3493 118.19 27.1779C118.22 27.0065 118.293 26.849 118.4 26.7254L126.099 17.8789C126.243 17.7132 126.438 17.6201 126.642 17.6201C126.846 17.6201 127.042 17.7132 127.186 17.8789C127.33 18.0447 127.411 18.2694 127.411 18.5038C127.411 18.7382 127.33 18.963 127.186 19.1287L119.488 27.9751C119.417 28.0573 119.332 28.1225 119.238 28.1669C119.145 28.2114 119.045 28.2342 118.944 28.234Z" fill="white"/>
<path d="M97.732 42.6078L90.6301 42.547C90.427 42.5446 90.2329 42.4499 90.0903 42.2837C89.9477 42.1175 89.8681 41.8932 89.8689 41.6598C89.8697 41.4263 89.9508 41.2027 90.0945 41.0378C90.2383 40.8729 90.433 40.78 90.6361 40.7794H90.6421L97.0997 40.8351L102.174 35.0039C102.245 34.9219 102.33 34.8568 102.423 34.8124C102.517 34.768 102.617 34.7451 102.718 34.7451C102.819 34.7451 102.919 34.768 103.012 34.8124C103.105 34.8568 103.19 34.9219 103.261 35.0039C103.333 35.086 103.389 35.1834 103.428 35.2906C103.467 35.3978 103.487 35.5127 103.487 35.6288C103.487 35.7448 103.467 35.8597 103.428 35.967C103.389 36.0742 103.333 36.1716 103.261 36.2536L97.732 42.6078Z" fill="white"/>
<path d="M106.49 60.766C106.287 60.766 106.092 60.6737 105.948 60.5094C105.804 60.3451 105.723 60.1219 105.721 59.8887L105.668 51.7272L111.197 45.3726C111.341 45.2069 111.537 45.1138 111.741 45.1138C111.842 45.1138 111.942 45.1366 112.035 45.181C112.128 45.2254 112.213 45.2905 112.285 45.3726C112.356 45.4546 112.413 45.5521 112.451 45.6593C112.49 45.7665 112.51 45.8814 112.51 45.9975C112.51 46.1135 112.49 46.2284 112.451 46.3356C112.413 46.4428 112.356 46.5402 112.285 46.6223L107.21 52.4539L107.259 59.8757C107.26 60.11 107.181 60.3354 107.038 60.5023C106.895 60.6692 106.7 60.7641 106.496 60.766H106.49Z" fill="white"/>
<path d="M98.5631 51.6558C98.411 51.6557 98.2623 51.6039 98.1359 51.5068C98.0095 51.4097 97.9109 51.2717 97.8527 51.1102C97.7945 50.9487 97.7793 50.7711 97.809 50.5997C97.8386 50.4283 97.9118 50.2708 98.0194 50.1472L105.717 41.3013C105.788 41.2192 105.873 41.1542 105.966 41.1097C106.06 41.0653 106.16 41.0425 106.261 41.0425C106.362 41.0425 106.461 41.0653 106.555 41.1097C106.648 41.1542 106.733 41.2192 106.804 41.3013C106.876 41.3833 106.932 41.4808 106.971 41.588C107.01 41.6952 107.029 41.8101 107.029 41.9261C107.029 42.0422 107.01 42.1571 106.971 42.2643C106.932 42.3715 106.876 42.4689 106.804 42.551L99.1068 51.3968C99.0355 51.479 98.9507 51.5442 98.8574 51.5886C98.7641 51.6331 98.6641 51.6559 98.5631 51.6558Z" fill="white"/>
<path d="M30.8747 54.5905C30.0279 54.5905 29.2001 54.302 28.496 53.7614C27.7919 53.2207 27.2431 52.4523 26.919 51.5533C26.5949 50.6543 26.5101 49.665 26.6753 48.7105C26.8404 47.7561 27.2482 46.8794 27.8469 46.1913C28.4456 45.5031 29.2085 45.0345 30.039 44.8446C30.8695 44.6547 31.7304 44.7521 32.5127 45.1244C33.2951 45.4968 33.9638 46.1274 34.4343 46.9365C34.9048 47.7456 35.1559 48.6969 35.1559 49.67C35.1548 50.9745 34.7034 52.2252 33.9007 53.1477C33.0981 54.0702 32.0098 54.589 30.8747 54.5905ZM30.8747 46.5174C30.332 46.5174 29.8016 46.7023 29.3504 47.0487C28.8992 47.3951 28.5475 47.8875 28.3399 48.4636C28.1322 49.0397 28.0779 49.6737 28.1837 50.2853C28.2896 50.8969 28.5509 51.4587 28.9346 51.8996C29.3183 52.3405 29.8071 52.6408 30.3393 52.7625C30.8715 52.8841 31.4232 52.8216 31.9245 52.583C32.4258 52.3443 32.8543 51.9402 33.1557 51.4217C33.4571 50.9032 33.618 50.2936 33.618 49.67C33.6171 48.8342 33.3279 48.0328 32.8136 47.4418C32.2993 46.8508 31.602 46.5184 30.8747 46.5174Z" fill="white"/>
</svg>
