<svg width="113" height="120" viewBox="0 0 113 120" fill="none" xmlns="http://www.w3.org/2000/svg">
<path d="M99.8647 41.806H13.1605C11.507 41.8042 9.92177 41.1233 8.75259 39.9126C7.58341 38.7019 6.92581 37.0604 6.92407 35.3482V21.7631C6.92581 20.0509 7.58339 18.4093 8.75255 17.1985C9.92171 15.9877 11.507 15.3067 13.1605 15.3047H45.5509C45.7538 15.3061 45.948 15.3906 46.091 15.5397C46.2341 15.6887 46.3143 15.8904 46.3143 16.1005C46.3143 16.3107 46.2341 16.5123 46.091 16.6614C45.948 16.8105 45.7538 16.895 45.5509 16.8964H13.1605C11.9145 16.898 10.7201 17.4112 9.8391 18.3236C8.95815 19.236 8.46266 20.4729 8.46133 21.7631V35.3484C8.46282 36.6384 8.95838 37.8752 9.83932 38.7874C10.7203 39.6996 11.9146 40.2128 13.1605 40.2143H99.8647C101.111 40.2128 102.305 39.6996 103.186 38.7874C104.067 37.8752 104.562 36.6384 104.564 35.3484V21.7631C104.563 20.4729 104.067 19.236 103.186 18.3236C102.305 17.4112 101.111 16.898 99.8647 16.8964H67.2416C67.0386 16.895 66.8445 16.8105 66.7014 16.6614C66.5584 16.5123 66.4781 16.3107 66.4781 16.1005C66.4781 15.8904 66.5584 15.6887 66.7014 15.5397C66.8445 15.3906 67.0386 15.3061 67.2416 15.3047H99.8647C101.518 15.3067 103.103 15.9877 104.273 17.1985C105.442 18.4093 106.099 20.0509 106.101 21.7631V35.3484C106.099 37.0605 105.442 38.702 104.273 39.9127C103.103 41.1233 101.518 41.8042 99.8647 41.806Z" fill="white"/>
<path d="M93.3048 94.6543H19.72C16.3261 94.6543 13.0713 93.2583 10.6716 90.7733C8.27177 88.2884 6.92358 84.9181 6.92358 81.4038C6.92358 77.8896 8.27177 74.5192 10.6716 72.0343C13.0713 69.5493 16.3261 68.1533 19.72 68.1533H93.3048C96.6986 68.1533 99.9534 69.5493 102.353 72.0343C104.753 74.5192 106.101 77.8896 106.101 81.4038C106.101 84.9181 104.753 88.2884 102.353 90.7733C99.9534 93.2583 96.6986 94.6543 93.3048 94.6543ZM19.72 69.745C16.7338 69.745 13.8699 70.9733 11.7584 73.1598C9.64688 75.3462 8.46063 78.3117 8.46063 81.4038C8.46063 84.496 9.64688 87.4615 11.7584 89.6479C13.8699 91.8344 16.7338 93.0627 19.72 93.0627H93.3048C96.2909 93.0627 99.1548 91.8344 101.266 89.6479C103.378 87.4615 104.564 84.496 104.564 81.4038C104.564 78.3117 103.378 75.3462 101.266 73.1598C99.1548 70.9733 96.2909 69.745 93.3048 69.745H19.72Z" fill="white"/>
<path d="M94.4946 100.566H18.5306C16.0983 100.57 13.6892 100.077 11.4411 99.1152C9.19304 98.1538 7.15005 96.7428 5.429 94.9631C3.70795 93.1834 2.3426 91.0698 1.41105 88.7432C0.47949 86.4166 0 83.9227 0 81.404C0 78.8854 0.47949 76.3915 1.41105 74.0649C2.3426 71.7383 3.70795 69.6247 5.429 67.845C7.15005 66.0653 9.19304 64.6544 11.4411 63.6929C13.6892 62.7314 16.0983 62.2383 18.5306 62.2417H94.4946C94.6975 62.2431 94.8917 62.3276 95.0347 62.4767C95.1778 62.6258 95.258 62.8274 95.258 63.0376C95.258 63.2477 95.1778 63.4493 95.0347 63.5984C94.8917 63.7475 94.6975 63.832 94.4946 63.8334H18.5306C14.0303 63.8334 9.71429 65.6846 6.5321 68.9798C3.34992 72.2749 1.56219 76.7441 1.56219 81.4041C1.56219 86.0642 3.34992 90.5334 6.5321 93.8285C9.71429 97.1237 14.0303 98.9749 18.5306 98.9749H94.4946C97.6475 98.9746 100.738 98.0647 103.42 96.3473C106.101 94.6299 108.267 92.1728 109.676 89.2518C111.084 86.3307 111.679 83.0611 111.393 79.8097C111.107 76.5582 109.952 73.4535 108.058 70.8438C107.937 70.6751 107.885 70.4636 107.914 70.2556C107.943 70.0475 108.05 69.8598 108.212 69.7333C108.374 69.6069 108.578 69.552 108.779 69.5806C108.98 69.6093 109.162 69.7192 109.286 69.8863C111.708 73.2012 113.012 77.2474 113 81.4042C112.994 86.4846 111.043 91.3551 107.574 94.9475C104.104 98.5398 99.4008 100.561 94.4946 100.566Z" fill="white"/>
<path d="M46.8623 10.6438H32.274C32.071 10.6424 31.8768 10.5579 31.7338 10.4088C31.5908 10.2598 31.5105 10.0582 31.5105 9.84802C31.5105 9.63789 31.5908 9.43628 31.7338 9.2872C31.8768 9.13812 32.071 9.05366 32.274 9.05226H46.8623C46.9637 9.05156 47.0642 9.07163 47.158 9.11131C47.2519 9.15099 47.3372 9.20949 47.4091 9.28345C47.481 9.35741 47.5381 9.44537 47.5771 9.54227C47.616 9.63916 47.636 9.74307 47.636 9.84802C47.636 9.95297 47.616 10.0569 47.5771 10.1538C47.5381 10.2507 47.481 10.3386 47.4091 10.4126C47.3372 10.4866 47.2519 10.5451 47.158 10.5847C47.0642 10.6244 46.9637 10.6445 46.8623 10.6438Z" fill="white"/>
<path d="M101.72 48.0594H11.3058C8.31497 48.0561 5.44758 46.8243 3.33275 44.6343C1.21792 42.4444 0.0283901 39.4752 0.0251465 36.3782V20.7334C0.0284172 17.6364 1.21796 14.6672 3.33279 12.4773C5.44761 10.2874 8.31499 9.05563 11.3058 9.05225H15.7137C15.9167 9.05365 16.1109 9.13811 16.2539 9.28721C16.3969 9.43631 16.4772 9.63793 16.4772 9.84809C16.4772 10.0582 16.3969 10.2599 16.2539 10.409C16.1109 10.5581 15.9167 10.6425 15.7137 10.6439H11.3058C8.72257 10.647 6.246 11.711 4.41938 13.6025C2.59276 15.494 1.56525 18.0584 1.56226 20.7334V36.3782C1.56526 39.0531 2.59277 41.6176 4.41939 43.5091C6.24601 45.4006 8.72257 46.4645 11.3058 46.4677H101.72C104.303 46.4645 106.78 45.4005 108.606 43.509C110.433 41.6175 111.46 39.0531 111.463 36.3782V20.7334C111.46 18.0585 110.433 15.4941 108.606 13.6026C106.78 11.7111 104.303 10.6471 101.72 10.6439H67.2415C67.0385 10.6425 66.8444 10.5581 66.7013 10.409C66.5583 10.2599 66.478 10.0582 66.478 9.84809C66.478 9.63793 66.5583 9.43631 66.7013 9.28721C66.8444 9.13811 67.0385 9.05365 67.2415 9.05225H101.72C104.711 9.05579 107.578 10.2876 109.692 12.4775C111.807 14.6674 112.997 17.6365 113 20.7334V36.3782C112.997 39.4751 111.807 42.4442 109.693 44.6341C107.578 46.824 104.711 48.0559 101.72 48.0594Z" fill="white"/>
<path d="M56.3544 32.2441C55.8338 32.2452 55.3217 32.1082 54.8668 31.8462C51.8346 30.0975 44.7825 25.3085 44.7825 18.6224V16.0686C44.7839 15.8584 44.8654 15.6574 45.0094 15.5092C45.1534 15.3611 45.3481 15.278 45.5511 15.278C45.754 15.278 45.9487 15.3611 46.0927 15.5092C46.2367 15.6574 46.3183 15.8584 46.3196 16.0686V18.6224C46.3196 24.4645 52.8201 28.844 55.6145 30.455C55.8472 30.591 56.1106 30.6605 56.3778 30.6564C56.645 30.6523 56.9063 30.5748 57.1351 30.4317C59.3259 29.081 66.4733 24.2376 66.4733 18.6225V4.01987C66.4729 3.59984 66.3117 3.19711 66.0249 2.90003C65.7382 2.60295 65.3493 2.43578 64.9437 2.43519H47.8492C47.4436 2.43578 47.0547 2.60295 46.768 2.90003C46.4812 3.19711 46.32 3.59984 46.3196 4.01987V7.5304C46.32 7.95036 46.4813 8.35299 46.768 8.64994C47.0548 8.94689 47.4436 9.1139 47.8492 9.11431H60.9566C61.058 9.11361 61.1585 9.13368 61.2523 9.17336C61.3462 9.21304 61.4315 9.27155 61.5034 9.34552C61.5753 9.41949 61.6324 9.50746 61.6713 9.60437C61.7103 9.70127 61.7303 9.80519 61.7303 9.91015C61.7303 10.0151 61.7103 10.119 61.6713 10.2159C61.6324 10.3128 61.5753 10.4008 61.5034 10.4748C61.4315 10.5488 61.3462 10.6073 61.2523 10.6469C61.1585 10.6866 61.058 10.7067 60.9566 10.706H47.8492C47.0361 10.705 46.2566 10.3702 45.6817 9.77482C45.1068 9.17949 44.7834 8.37233 44.7825 7.5304V4.01987C44.7832 3.17783 45.1066 2.37048 45.6815 1.775C46.2564 1.17951 47.036 0.844507 47.8492 0.843506L64.9435 0.843506C65.7567 0.844507 66.5363 1.17951 67.1112 1.775C67.6862 2.37048 68.0095 3.17783 68.0103 4.01987V18.6224C68.0103 24.9005 60.9551 29.9289 57.9215 31.7995C57.4472 32.091 56.9058 32.2446 56.3544 32.2441Z" fill="white"/>
<path d="M27.7766 63.8337C27.6756 63.8338 27.5757 63.8133 27.4824 63.7733C27.3891 63.7333 27.3044 63.6747 27.233 63.6008C27.1616 63.5269 27.105 63.4391 27.0664 63.3425C27.0278 63.246 27.008 63.1424 27.0081 63.0379V47.2632C27.0094 47.0531 27.091 46.852 27.235 46.7039C27.3789 46.5558 27.5736 46.4727 27.7766 46.4727C27.9795 46.4727 28.1742 46.5558 28.3182 46.7039C28.4622 46.852 28.5438 47.0531 28.5451 47.2632V63.0379C28.5452 63.1424 28.5253 63.246 28.4867 63.3426C28.4481 63.4391 28.3915 63.5269 28.3202 63.6008C28.2488 63.6747 28.164 63.7333 28.0707 63.7733C27.9775 63.8133 27.8775 63.8338 27.7766 63.8337Z" fill="white"/>
<path d="M85.249 63.8337C85.1481 63.8338 85.0481 63.8133 84.9548 63.7733C84.8615 63.7333 84.7768 63.6747 84.7054 63.6008C84.634 63.5269 84.5774 63.4391 84.5388 63.3425C84.5002 63.246 84.4804 63.1424 84.4805 63.0379V47.2632C84.4818 47.0531 84.5634 46.852 84.7074 46.7039C84.8514 46.5558 85.0461 46.4727 85.249 46.4727C85.452 46.4727 85.6467 46.5558 85.7907 46.7039C85.9347 46.852 86.0162 47.0531 86.0176 47.2632V63.0379C86.0176 63.1424 85.9978 63.246 85.9592 63.3426C85.9206 63.4391 85.864 63.5269 85.7926 63.6008C85.7212 63.6747 85.6365 63.7333 85.5432 63.7733C85.4499 63.8133 85.35 63.8338 85.249 63.8337Z" fill="white"/>
<path d="M56.5127 111.839C56.4117 111.839 56.3118 111.818 56.2185 111.778C56.1252 111.738 56.0405 111.679 55.9691 111.606C55.8977 111.532 55.8411 111.444 55.8025 111.347C55.7639 111.251 55.7441 111.147 55.7441 111.043V99.7703C55.7455 99.5601 55.8271 99.3591 55.971 99.211C56.115 99.0629 56.3097 98.9797 56.5127 98.9797C56.7156 98.9797 56.9104 99.0629 57.0543 99.211C57.1983 99.3591 57.2799 99.5601 57.2812 99.7703V111.043C57.2813 111.147 57.2615 111.251 57.2229 111.347C57.1843 111.444 57.1277 111.532 57.0563 111.606C56.9849 111.679 56.9002 111.738 56.8069 111.778C56.7136 111.818 56.6136 111.839 56.5127 111.839Z" fill="white"/>
<path d="M20.6822 34.9429C19.4621 34.943 18.2694 34.5685 17.2549 33.8666C16.2404 33.1648 15.4497 32.1672 14.9827 31.0001C14.5157 29.8329 14.3934 28.5485 14.6314 27.3094C14.8694 26.0702 15.4568 24.932 16.3195 24.0386C17.1822 23.1452 18.2813 22.5368 19.478 22.2903C20.6746 22.0437 21.915 22.1702 23.0422 22.6537C24.1694 23.1371 25.1328 23.9558 25.8107 25.0063C26.4885 26.0568 26.8503 27.2918 26.8503 28.5552C26.8485 30.2486 26.1981 31.8722 25.0417 33.0697C23.8854 34.2671 22.3176 34.9408 20.6822 34.9429ZM20.6822 23.7593C19.7661 23.7591 18.8706 24.0403 18.1088 24.5672C17.3471 25.0941 16.7533 25.8431 16.4027 26.7194C16.052 27.5958 15.9602 28.5601 16.1388 29.4905C16.3175 30.4209 16.7585 31.2755 17.4063 31.9464C18.054 32.6172 18.8793 33.074 19.7777 33.2591C20.6762 33.4442 21.6075 33.3493 22.4538 32.9863C23.3002 32.6233 24.0236 32.0085 24.5325 31.2198C25.0415 30.4311 25.3131 29.5038 25.3131 28.5552C25.3118 27.2837 24.8235 26.0648 23.9553 25.1656C23.0872 24.2665 21.9101 23.7607 20.6822 23.7592V23.7593Z" fill="white"/>
<path d="M35.2976 34.9429C34.0775 34.9429 32.8849 34.5682 31.8705 33.8664C30.856 33.1645 30.0654 32.1668 29.5985 30.9996C29.1316 29.8324 29.0094 28.5481 29.2474 27.309C29.4855 26.0699 30.073 24.9317 30.9357 24.0384C31.7984 23.1451 32.8975 22.5367 34.0941 22.2902C35.2907 22.0438 36.531 22.1702 37.6582 22.6537C38.7854 23.1372 39.7488 23.9559 40.4266 25.0064C41.1045 26.0568 41.4662 27.2918 41.4662 28.5552C41.4644 30.2487 40.8139 31.8723 39.6575 33.0698C38.501 34.2674 36.933 34.941 35.2976 34.9429ZM35.2976 23.7593C34.3815 23.7593 33.4861 24.0406 32.7244 24.5676C31.9628 25.0946 31.3691 25.8436 31.0186 26.72C30.668 27.5963 30.5763 28.5606 30.755 29.491C30.9337 30.4213 31.3749 31.2759 32.0226 31.9466C32.6704 32.6173 33.4956 33.0741 34.3941 33.2592C35.2925 33.4442 36.2238 33.3492 37.0701 32.9862C37.9164 32.6232 38.6397 32.0084 39.1486 31.2197C39.6575 30.431 39.9292 29.5037 39.9291 28.5552C39.9278 27.2836 39.4394 26.0645 38.5711 25.1654C37.7028 24.2663 36.5255 23.7605 35.2976 23.7592V23.7593Z" fill="white"/>
<path d="M20.6822 87.792C19.4621 87.7921 18.2694 87.4176 17.2549 86.7158C16.2404 86.014 15.4497 85.0164 14.9827 83.8493C14.5157 82.6821 14.3934 81.3977 14.6314 80.1586C14.8694 78.9195 15.4568 77.7813 16.3195 76.8879C17.1822 75.9946 18.2813 75.3861 19.478 75.1396C20.6746 74.8931 21.915 75.0196 23.0422 75.503C24.1694 75.9865 25.1328 76.8052 25.8107 77.8556C26.4885 78.9061 26.8503 80.1411 26.8503 81.4044C26.8485 83.0978 26.1981 84.7213 25.0417 85.9188C23.8854 87.1163 22.3176 87.7899 20.6822 87.792ZM20.6822 76.6086C19.7662 76.6085 18.8706 76.8896 18.1089 77.4165C17.3471 77.9434 16.7533 78.6924 16.4027 79.5687C16.052 80.445 15.9602 81.4093 16.1388 82.3397C16.3175 83.2701 16.7585 84.1247 17.4062 84.7955C18.0539 85.4663 18.8792 85.9231 19.7777 86.1082C20.6761 86.2933 21.6074 86.1984 22.4538 85.8354C23.3001 85.4725 24.0235 84.8578 24.5325 84.0691C25.0414 83.2804 25.3131 82.3531 25.3131 81.4045C25.3118 80.1331 24.8236 78.9141 23.9554 78.0149C23.0873 77.1158 21.9101 76.6099 20.6822 76.6084V76.6086Z" fill="white"/>
<path d="M35.2976 87.792C34.0775 87.792 32.8849 87.4174 31.8705 86.7155C30.856 86.0136 30.0654 85.016 29.5985 83.8488C29.1316 82.6817 29.0094 81.3973 29.2474 80.1583C29.4855 78.9192 30.073 77.781 30.9357 76.8877C31.7984 75.9944 32.8975 75.386 34.0941 75.1396C35.2907 74.8931 36.531 75.0196 37.6582 75.5031C38.7854 75.9865 39.7488 76.8052 40.4266 77.8557C41.1045 78.9061 41.4662 80.1411 41.4662 81.4044C41.4644 83.0979 40.8139 84.7215 39.6575 85.919C38.501 87.1165 36.933 87.7901 35.2976 87.792ZM35.2976 76.6086C34.3815 76.6086 33.4861 76.8899 32.7244 77.4169C31.9628 77.9438 31.3691 78.6929 31.0186 79.5692C30.668 80.4455 30.5763 81.4098 30.755 82.3402C30.9337 83.2705 31.3748 84.125 32.0226 84.7957C32.6703 85.4665 33.4956 85.9232 34.394 86.1083C35.2924 86.2933 36.2237 86.1984 37.07 85.8354C37.9163 85.4724 38.6397 84.8577 39.1486 84.069C39.6575 83.2803 39.9291 82.3531 39.9291 81.4045C39.9279 80.1329 39.4395 78.9138 38.5712 78.0146C37.7029 77.1155 36.5256 76.6097 35.2976 76.6084V76.6086Z" fill="white"/>
<path d="M85.2493 115.064H27.7766C27.5737 115.063 27.3795 114.978 27.2365 114.829C27.0935 114.68 27.0132 114.478 27.0132 114.268C27.0132 114.058 27.0935 113.856 27.2365 113.707C27.3795 113.558 27.5737 113.473 27.7766 113.472H85.2493C85.3507 113.471 85.4512 113.491 85.545 113.531C85.6388 113.57 85.7242 113.629 85.7961 113.703C85.868 113.777 85.9251 113.865 85.964 113.962C86.003 114.059 86.023 114.163 86.023 114.268C86.023 114.373 86.003 114.477 85.964 114.574C85.9251 114.671 85.868 114.759 85.7961 114.833C85.7242 114.907 85.6388 114.965 85.545 115.005C85.4512 115.045 85.3507 115.065 85.2493 115.064Z" fill="white"/>
<path d="M56.5127 119.859C59.495 119.859 61.9126 117.355 61.9126 114.267C61.9126 111.179 59.495 108.676 56.5127 108.676C53.5304 108.676 51.1128 111.179 51.1128 114.267C51.1128 117.355 53.5304 119.859 56.5127 119.859Z" fill="white"/>
</svg>
