<svg width="111" height="88" viewBox="0 0 111 88" fill="none" xmlns="http://www.w3.org/2000/svg">
<path d="M22.9965 82.3424C19.6395 82.341 16.3232 81.523 13.281 79.946C10.2388 78.3689 7.54459 76.0711 5.38792 73.2142C3.23124 70.3574 1.66452 67.0108 0.797976 63.4101C-0.0685654 59.8093 -0.213869 56.0419 0.37229 52.3728C0.403328 52.1783 0.502692 52.0055 0.648521 51.8925C0.79435 51.7794 0.974699 51.7352 1.14989 51.7698C1.32509 51.8043 1.48078 51.9147 1.58271 52.0766C1.68465 52.2386 1.72447 52.4388 1.69344 52.6333C1.14168 56.088 1.27859 59.6353 2.09453 63.0256C2.91048 66.4159 4.38564 69.5669 6.41623 72.2569C8.44683 74.9469 10.9835 77.1105 13.8479 78.5956C16.7123 80.0807 19.8347 80.8511 22.9955 80.8527C26.3428 80.8619 29.645 79.9992 32.6367 78.3339C32.7958 78.2455 32.98 78.231 33.1489 78.2935C33.3177 78.3559 33.4573 78.4903 33.5369 78.667C33.6166 78.8436 33.6297 79.0481 33.5735 79.2355C33.5173 79.4229 33.3964 79.5778 33.2373 79.6661C30.0596 81.4354 26.552 82.3521 22.9965 82.3424Z" fill="white"/>
<path d="M20.8047 60.0421C20.6805 60.0423 20.5587 60.0042 20.4528 59.9321C20.3469 59.86 20.2611 59.7567 20.2049 59.6337C17.6098 53.9646 16.2631 47.6936 16.2752 41.3357C16.268 31.1175 19.7304 21.2734 25.972 13.7663C32.2137 6.25908 40.7759 1.64041 49.9514 0.83119C59.127 0.0219726 68.2417 3.08167 75.4781 9.40019C82.7145 15.7187 87.541 24.8318 88.995 34.9223C89.0088 35.0189 89.0053 35.1176 88.9848 35.2127C88.9642 35.3078 88.927 35.3975 88.8752 35.4766C88.8235 35.5557 88.7581 35.6227 88.683 35.6738C88.6079 35.7249 88.5244 35.7591 88.4374 35.7743C88.3504 35.7896 88.2615 35.7857 88.1758 35.7629C88.0901 35.74 88.0093 35.6986 87.938 35.6411C87.8668 35.5836 87.8064 35.5111 87.7603 35.4277C87.7143 35.3443 87.6834 35.2516 87.6696 35.155C86.2685 25.4348 81.6188 16.6564 74.6477 10.57C67.6766 4.48365 58.8963 1.53655 50.0574 2.31631C41.2186 3.09608 32.9706 7.54542 26.9581 14.7772C20.9456 22.009 17.6103 31.4918 17.6172 41.335C17.6053 47.4594 18.9024 53.5002 21.4021 58.9611C21.4539 59.0746 21.4787 59.2009 21.474 59.3279C21.4694 59.455 21.4355 59.5787 21.3756 59.6871C21.3157 59.7955 21.2318 59.885 21.1319 59.9472C21.0319 60.0094 20.9193 60.0421 20.8047 60.0422L20.8047 60.0421Z" fill="white"/>
<path d="M81.2376 85.6625C80.161 85.6633 79.1084 85.3099 78.2129 84.647C77.3174 83.984 76.6192 83.0413 76.2066 81.938C75.794 80.8347 75.6856 79.6204 75.895 78.4487C76.1044 77.2769 76.6222 76.2004 77.383 75.3552C78.1438 74.51 79.1134 73.9341 80.1692 73.7003C81.225 73.4665 82.3195 73.5854 83.3143 74.0418C84.3092 74.4983 85.1597 75.2718 85.7583 76.2646C86.3569 77.2574 86.6767 78.4249 86.6772 79.6194C86.6764 81.2206 86.1032 82.756 85.0835 83.8889C84.0637 85.0218 82.6806 85.6596 81.2376 85.6625ZM81.232 75.0729C80.421 75.0734 79.6282 75.3408 78.9541 75.8413C78.28 76.3417 77.7547 77.0527 77.4447 77.8843C77.1348 78.7159 77.054 79.6309 77.2127 80.5134C77.3713 81.3959 77.7623 82.2064 78.3361 82.8424C78.9099 83.4783 79.6408 83.9112 80.4364 84.0862C81.2319 84.2613 82.0564 84.1706 82.8056 83.8257C83.5548 83.4808 84.1949 82.8972 84.6452 82.1487C85.0954 81.4001 85.3355 80.5202 85.335 79.6203C85.3332 78.4139 84.9002 77.2577 84.131 76.4052C83.3618 75.5526 82.3192 75.0735 81.232 75.0729Z" fill="white"/>
<path d="M88.8149 81.2951C87.9087 81.2958 87.0035 81.2327 86.1045 81.1061C86.0171 81.0938 85.9327 81.0625 85.8562 81.0141C85.7797 80.9656 85.7125 80.9008 85.6586 80.8236C85.6046 80.7463 85.5649 80.6579 85.5417 80.5636C85.5185 80.4693 85.5122 80.3708 85.5233 80.2738C85.5344 80.1769 85.5626 80.0832 85.6063 79.9983C85.65 79.9134 85.7084 79.8389 85.7781 79.779C85.8477 79.7191 85.9273 79.6751 86.0123 79.6493C86.0973 79.6236 86.1861 79.6167 86.2735 79.629C87.1162 79.7473 87.9647 79.8063 88.8141 79.8057C92.0376 79.8034 95.212 78.9297 98.0628 77.2602C100.914 75.5906 103.355 73.1755 105.175 70.2238C106.996 67.2722 108.141 63.8728 108.511 60.32C108.881 56.7671 108.465 53.1678 107.3 49.8333C106.134 46.4989 104.254 43.5299 101.821 41.1831C99.389 38.8364 96.4778 37.1826 93.3398 36.3649C90.2018 35.5472 86.9314 35.5902 83.8116 36.4901C80.6918 37.3901 77.8166 39.12 75.4348 41.53C75.3697 41.596 75.2935 41.6471 75.2106 41.6803C75.1277 41.7136 75.0397 41.7284 74.9516 41.724C74.8635 41.7195 74.7771 41.6958 74.6973 41.6543C74.6174 41.6128 74.5458 41.5542 74.4863 41.482C74.4269 41.4097 74.3809 41.3252 74.3509 41.2332C74.3209 41.1412 74.3076 41.0436 74.3116 40.9458C74.3156 40.8481 74.337 40.7522 74.3744 40.6637C74.4118 40.5751 74.4646 40.4956 74.5297 40.4296C77.0727 37.8564 80.1424 36.0094 83.4733 35.0485C86.8042 34.0875 90.2959 34.0416 93.6463 34.9145C96.9967 35.7875 100.105 37.5532 102.702 40.0587C105.299 42.5642 107.306 45.7341 108.551 49.2942C109.795 52.8542 110.239 56.6972 109.844 60.4905C109.449 64.2838 108.227 67.9132 106.283 71.0646C104.34 74.216 101.733 76.7946 98.6895 78.5772C95.6458 80.3597 92.2565 81.2926 88.8149 81.2951Z" fill="white"/>
<path d="M23.0485 82.3391C17.4141 82.3412 11.974 80.0484 7.75927 75.8954C3.54454 71.7424 0.848118 66.0178 0.181107 59.8067C-0.485903 53.5956 0.922852 47.3297 4.14035 42.1965C7.35785 37.0634 12.1605 33.4198 17.6379 31.9564C17.7236 31.9336 17.8125 31.9298 17.8995 31.9452C17.9866 31.9605 18.07 31.9948 18.1451 32.0459C18.2202 32.0971 18.2856 32.1642 18.3373 32.2434C18.3891 32.3225 18.4263 32.4122 18.4469 32.5074C18.4675 32.6025 18.4709 32.7012 18.4571 32.7978C18.4433 32.8944 18.4125 32.987 18.3665 33.0704C18.3204 33.1537 18.26 33.2262 18.1887 33.2837C18.1174 33.3411 18.0366 33.3824 17.9509 33.4052C12.7932 34.7836 8.27095 38.215 5.24141 43.0488C2.21187 47.8826 0.885535 53.7831 1.5138 59.6318C2.14206 65.4805 4.68126 70.871 8.65013 74.7816C12.619 78.6923 17.7417 80.8513 23.0474 80.8495C23.1355 80.8494 23.2227 80.8686 23.3042 80.906C23.3856 80.9434 23.4596 80.9983 23.522 81.0674C23.5843 81.1365 23.6338 81.2186 23.6676 81.309C23.7014 81.3993 23.7188 81.4962 23.7189 81.594C23.719 81.6918 23.7017 81.7887 23.6681 81.879C23.6344 81.9694 23.585 82.0516 23.5228 82.1207C23.4605 82.1899 23.3866 82.2448 23.3052 82.2823C23.2239 82.3198 23.1366 82.3391 23.0485 82.3391Z" fill="white"/>
<path d="M102.901 50.9474C102.775 50.9476 102.652 50.9083 102.545 50.834C102.438 50.7598 102.352 50.6536 102.297 50.5277C101.057 47.717 99.1333 45.3471 96.7437 43.6862C94.3542 42.0253 91.5939 41.1395 88.7752 41.129C88.5972 41.1291 88.4265 41.0507 88.3005 40.9111C88.1746 40.7715 88.1038 40.582 88.1036 40.3845C88.1035 40.187 88.174 39.9975 88.2997 39.8577C88.4254 39.718 88.596 39.6394 88.774 39.6393C91.8446 39.6506 94.8515 40.6154 97.4546 42.4247C100.058 44.2341 102.153 46.8156 103.504 49.8775C103.554 49.991 103.576 50.1167 103.57 50.2426C103.564 50.3686 103.53 50.4908 103.469 50.5977C103.409 50.7047 103.325 50.7928 103.226 50.854C103.127 50.9152 103.015 50.9473 102.901 50.9474Z" fill="white"/>
<path d="M29.8286 21.1255C29.7015 21.1255 29.5771 21.0854 29.4697 21.0099C29.3623 20.9345 29.2765 20.8267 29.2221 20.6992C29.1677 20.5718 29.147 20.4298 29.1625 20.2898C29.1779 20.1498 29.2288 20.0176 29.3093 19.9085C32.1575 16.0336 35.7475 12.9117 39.8187 10.7694C43.8898 8.62707 48.34 7.51812 52.8462 7.52303C53.0242 7.52294 53.1949 7.60133 53.3208 7.74095C53.4468 7.88057 53.5176 8.06998 53.5178 8.26752C53.5179 8.46505 53.4474 8.65454 53.3216 8.79428C53.1959 8.93402 53.0253 9.01257 52.8474 9.01265C48.5397 9.00808 44.2855 10.0683 40.3937 12.1163C36.5019 14.1642 33.0701 17.1487 30.3473 20.8529C30.2845 20.9382 30.2054 21.0069 30.1156 21.054C30.0259 21.1012 29.9279 21.1256 29.8286 21.1255Z" fill="white"/>
<path d="M23.0452 76.9747C18.2628 76.9901 13.6691 74.901 10.2701 71.165C10.2073 71.0964 10.1573 71.0147 10.123 70.9246C10.0887 70.8345 10.0706 70.7378 10.0699 70.64C10.0686 70.4425 10.1379 70.2525 10.2627 70.1118C10.3246 70.0422 10.3981 69.9867 10.4793 69.9486C10.5604 69.9105 10.6475 69.8906 10.7356 69.8898C10.9135 69.8884 11.0847 69.9655 11.2115 70.1041C14.3598 73.5644 18.6145 75.4993 23.044 75.4851C23.222 75.485 23.3927 75.5634 23.5186 75.703C23.6446 75.8426 23.7154 76.032 23.7155 76.2295C23.7157 76.4271 23.6452 76.6165 23.5194 76.7563C23.3937 76.896 23.2231 76.9746 23.0452 76.9747Z" fill="white"/>
<path d="M60.0532 69.5364C59.9614 69.5364 59.8704 69.5164 59.7855 69.4774C59.7006 69.4384 59.6235 69.3812 59.5585 69.3091C59.4935 69.237 59.4419 69.1515 59.4067 69.0573C59.3715 68.9631 59.3533 68.8621 59.3532 68.7601L59.3489 63.1579C59.2978 61.4469 58.6492 59.8248 57.5404 58.6345C56.4315 57.4442 54.9493 56.7791 53.4072 56.7799C51.865 56.7806 50.3838 57.4471 49.2768 58.6385C48.1699 59.8298 47.5238 61.4526 47.4754 63.1637L47.4798 68.7658C47.4799 68.9718 47.4064 69.1694 47.2753 69.3151C47.1442 69.4608 46.9663 69.5427 46.7808 69.5428C46.5953 69.5428 46.4173 69.4611 46.2859 69.3155C46.1546 69.17 46.0808 68.9725 46.0806 68.7665L46.0763 63.1643C46.1245 61.0413 46.9178 59.0236 48.2869 57.5409C49.656 56.0583 51.4929 55.2281 53.406 55.2272C55.319 55.2263 57.1571 56.0547 58.5286 57.536C59.9001 59.0173 60.6964 61.0343 60.748 63.1573L60.7524 68.7594C60.7525 68.8614 60.7345 68.9625 60.6994 69.0567C60.6643 69.151 60.6128 69.2366 60.5479 69.3088C60.483 69.3809 60.4059 69.4382 60.321 69.4772C60.2361 69.5163 60.1451 69.5364 60.0532 69.5364Z" fill="white"/>
<path d="M63.0839 68.7561L43.7619 68.7654C43.5782 68.7655 43.3963 68.8058 43.2266 68.8839C43.0569 68.962 42.9027 69.0765 42.7729 69.2208C42.6431 69.3651 42.5402 69.5364 42.47 69.7248C42.3999 69.9133 42.3638 70.1153 42.364 70.3193L42.3759 85.6296C42.3761 85.8336 42.4124 86.0356 42.4829 86.224C42.5534 86.4124 42.6565 86.5836 42.7866 86.7277C42.9166 86.8719 43.0709 86.9862 43.2408 87.0642C43.4106 87.1422 43.5925 87.1822 43.7763 87.1821L63.0983 87.1728C63.282 87.1727 63.464 87.1325 63.6336 87.0543C63.8033 86.9762 63.9575 86.8617 64.0873 86.7174C64.2171 86.5732 64.32 86.4019 64.3902 86.2134C64.4604 86.0249 64.4964 85.8229 64.4962 85.619L64.4843 70.3086C64.4841 70.1046 64.4478 69.9027 64.3773 69.7143C64.3069 69.5259 64.2037 69.3547 64.0736 69.2105C63.9436 69.0664 63.7893 68.952 63.6195 68.8741C63.4497 68.7961 63.2677 68.756 63.0839 68.7561ZM54.1312 79.8105C54.1313 80.0164 54.0578 80.214 53.9267 80.3597C53.7956 80.5054 53.6177 80.5873 53.4322 80.5874C53.2467 80.5875 53.0687 80.5057 52.9374 80.3602C52.8061 80.2146 52.7322 80.0171 52.732 79.8111L52.7282 74.8999C52.728 74.6939 52.8016 74.4963 52.9327 74.3506C53.0638 74.2049 53.2416 74.123 53.4272 74.1229C53.6127 74.1229 53.7907 74.2046 53.922 74.3502C54.0533 74.4957 54.1272 74.6932 54.1273 74.8992L54.1312 79.8105Z" fill="white"/>
</svg>
