<svg width="71" height="91" viewBox="0 0 71 91" fill="none" xmlns="http://www.w3.org/2000/svg">
<g clip-path="url(#clip0_45_42)">
<path d="M35.5948 80.1029C35.78 80.1029 35.9611 80.1578 36.1151 80.2607C36.2691 80.3636 36.3891 80.5098 36.46 80.6809C36.5309 80.8521 36.5494 81.0404 36.5133 81.222C36.4772 81.4037 36.388 81.5706 36.257 81.7015C36.1261 81.8325 35.9592 81.9217 35.7775 81.9578C35.5959 81.994 35.4076 81.9754 35.2365 81.9046C35.0654 81.8337 34.9191 81.7136 34.8162 81.5596C34.7133 81.4056 34.6584 81.2246 34.6584 81.0394C34.6582 80.9163 34.6823 80.7945 34.7293 80.6808C34.7764 80.5671 34.8453 80.4639 34.9323 80.3769C35.0193 80.2899 35.1226 80.2209 35.2363 80.1739C35.3499 80.1269 35.4718 80.1028 35.5948 80.1029ZM35.5948 79.0647C35.2042 79.0647 34.8224 79.1805 34.4977 79.3975C34.173 79.6145 33.9199 79.9229 33.7704 80.2837C33.621 80.6446 33.5819 81.0416 33.6581 81.4247C33.7343 81.8077 33.9223 82.1596 34.1985 82.4357C34.4747 82.7119 34.8265 82.8999 35.2096 82.9761C35.5926 83.0523 35.9897 83.0132 36.3505 82.8638C36.7113 82.7143 37.0197 82.4612 37.2367 82.1364C37.4537 81.8117 37.5695 81.4299 37.5695 81.0394C37.5689 80.5158 37.3607 80.0139 36.9905 79.6437C36.6203 79.2735 36.1183 79.0653 35.5948 79.0647Z" fill="white"/>
<path d="M35.5943 90.9166C35.5125 90.9166 35.4319 90.8974 35.359 90.8604L33.6983 90.0171C25.7346 85.7928 18.5367 80.2614 12.4047 73.6536C7.16651 67.991 0.922119 59.389 0.922119 50.5651C0.922119 50.4969 0.935548 50.4294 0.961638 50.3664C0.987728 50.3034 1.02597 50.2462 1.07418 50.198C1.12239 50.1498 1.17962 50.1115 1.24261 50.0854C1.30559 50.0593 1.3731 50.0459 1.44128 50.0459C1.50946 50.0459 1.57697 50.0593 1.63996 50.0854C1.70294 50.1115 1.76017 50.1498 1.80838 50.198C1.85659 50.2462 1.89483 50.3034 1.92092 50.3664C1.94701 50.4294 1.96044 50.4969 1.96044 50.5651C1.96044 59.0529 8.05478 67.4221 13.1672 72.9484C19.2148 79.467 26.3141 84.9239 34.1689 89.0914L35.5944 89.8153L37.0214 89.0914C38.9495 88.1029 40.8258 87.0163 42.6428 85.8359C42.7584 85.7644 42.8975 85.7411 43.0301 85.771C43.1628 85.801 43.2784 85.8818 43.3521 85.996C43.4258 86.1103 43.4517 86.2489 43.4243 86.3821C43.3969 86.5153 43.3183 86.6324 43.2055 86.7083C41.3586 87.9081 39.4513 89.0125 37.4913 90.017L35.8291 90.8603C35.7564 90.8974 35.6759 90.9167 35.5943 90.9166Z" fill="white"/>
<path d="M48.0373 83.1993C47.9287 83.1993 47.8227 83.1653 47.7344 83.102C47.6461 83.0386 47.5799 82.9492 47.5451 82.8462C47.5103 82.7432 47.5088 82.632 47.5406 82.5281C47.5724 82.4241 47.636 82.3328 47.7225 82.267C67.685 67.0897 69.2362 54.165 69.2362 50.5653V39.8033C69.2362 39.6657 69.2909 39.5336 69.3883 39.4362C69.4856 39.3389 69.6177 39.2842 69.7554 39.2842C69.8931 39.2842 70.0251 39.3389 70.1225 39.4362C70.2198 39.5336 70.2745 39.6657 70.2745 39.8033V50.5653C69.8965 56.9902 67.494 63.1304 63.4115 68.1059C59.119 73.7832 54.0492 78.8285 48.351 83.0933C48.2609 83.1621 48.1507 83.1994 48.0373 83.1993Z" fill="white"/>
<path d="M69.7555 26.8388C69.6873 26.8389 69.6198 26.8254 69.5568 26.7994C69.4938 26.7733 69.4365 26.735 69.3883 26.6868C69.3401 26.6386 69.3019 26.5814 69.2758 26.5184C69.2497 26.4554 69.2363 26.3878 69.2363 26.3197V12.903C69.3382 11.2869 69.1113 9.66685 68.5692 8.14094C68.0271 6.61503 67.1811 5.21493 66.0824 4.02534C64.9201 2.9793 63.5605 2.17617 62.0834 1.66318C60.6063 1.15018 59.0416 0.937664 57.4811 1.03813L57.36 1.03839H13.8328C3.50353 1.14014 1.96055 8.5155 1.96055 12.903C1.95837 13.0392 1.90271 13.1691 1.8056 13.2647C1.70849 13.3603 1.5777 13.4138 1.44146 13.4138C1.30521 13.4138 1.17443 13.3603 1.07731 13.2647C0.980203 13.1691 0.924551 13.0392 0.922363 12.903C0.922229 9.06171 2.17999 0.114875 13.8277 4.35803e-05H57.357L57.4841 -0.000197269C59.1801 -0.103155 60.8795 0.134898 62.482 0.699893C64.0844 1.26489 65.5573 2.14536 66.8137 3.28928C68.0112 4.57408 68.9353 6.08862 69.5302 7.74114C70.1251 9.39365 70.3783 11.1497 70.2745 12.903V26.3197C70.2745 26.3879 70.2611 26.4554 70.235 26.5184C70.209 26.5813 70.1707 26.6386 70.1225 26.6868C70.0743 26.735 70.0171 26.7732 69.9541 26.7993C69.8912 26.8254 69.8237 26.8388 69.7555 26.8388Z" fill="white"/>
<path d="M4.94576 37.261C4.87758 37.2611 4.81005 37.2476 4.74706 37.2216C4.68406 37.1955 4.62682 37.1572 4.5786 37.109C4.53039 37.0608 4.49215 37.0036 4.46607 36.9406C4.43999 36.8776 4.42657 36.81 4.4266 36.7419V13.7926C4.34544 12.4584 4.54851 11.1223 5.02235 9.87253C5.49619 8.62275 6.23001 7.48784 7.17526 6.54287C8.12052 5.59791 9.25565 4.86443 10.5056 4.39097C11.7555 3.9175 13.0917 3.71484 14.4258 3.7964H41.5336C41.6017 3.7964 41.6693 3.80983 41.7322 3.83592C41.7952 3.86201 41.8525 3.90025 41.9007 3.94846C41.9489 3.99667 41.9871 4.0539 42.0132 4.11689C42.0393 4.17988 42.0527 4.24739 42.0527 4.31556C42.0527 4.38374 42.0393 4.45125 42.0132 4.51424C41.9871 4.57722 41.9489 4.63446 41.9007 4.68267C41.8525 4.73087 41.7952 4.76911 41.7322 4.79521C41.6693 4.8213 41.6017 4.83472 41.5336 4.83472H14.4304C13.2349 4.76264 12.0377 4.9449 10.9178 5.36947C9.79792 5.79404 8.78079 6.45127 7.93353 7.29779C7.08628 8.14431 6.42817 9.16088 6.00263 10.2804C5.57709 11.3999 5.39379 12.597 5.46484 13.7926V36.7419C5.46486 36.8101 5.45144 36.8776 5.42536 36.9406C5.39929 37.0036 5.36105 37.0608 5.31285 37.109C5.26464 37.1572 5.20741 37.1955 5.14443 37.2215C5.08144 37.2476 5.01393 37.261 4.94576 37.261Z" fill="white"/>
<path d="M35.5947 86.8008C35.5129 86.8008 35.4323 86.7815 35.3594 86.7446L34.9062 86.5145C23.0004 80.4685 8.64307 67.2653 5.22586 55.6352C5.20564 55.5695 5.19866 55.5005 5.20533 55.4321C5.212 55.3638 5.23218 55.2974 5.2647 55.2369C5.29722 55.1764 5.34144 55.1229 5.39478 55.0796C5.44812 55.0363 5.50953 55.0041 5.57545 54.9847C5.64136 54.9653 5.71046 54.9592 5.77875 54.9668C5.84703 54.9743 5.91313 54.9954 5.97322 55.0287C6.03331 55.062 6.08619 55.1069 6.12879 55.1608C6.17138 55.2147 6.20285 55.2765 6.22137 55.3427C9.56014 66.7032 23.6665 79.6424 35.3767 85.5887L35.5947 85.6995L35.8137 85.5887C48.3567 79.2189 65.7324 63.4535 65.7324 50.4205V13.7926C65.7894 12.5999 65.5963 11.4084 65.1653 10.2947C64.7344 9.1811 64.0752 8.16994 63.2301 7.32627C62.3851 6.48259 61.3728 5.82506 60.2585 5.39595C59.1441 4.96684 57.9523 4.77564 56.7597 4.83464H52.5106C52.4417 4.83575 52.3733 4.82314 52.3094 4.79755C52.2454 4.77195 52.1872 4.7339 52.1381 4.68558C52.089 4.63727 52.05 4.57967 52.0234 4.51614C51.9968 4.45261 51.9831 4.38442 51.9831 4.31555C51.9831 4.24667 51.9968 4.17848 52.0234 4.11495C52.05 4.05142 52.089 3.99382 52.1381 3.94551C52.1872 3.8972 52.2454 3.85914 52.3094 3.83354C52.3733 3.80795 52.4417 3.79534 52.5106 3.79645H56.7597C58.0848 3.75308 59.4047 3.98187 60.6379 4.46868C61.8712 4.9555 62.9915 5.69 63.9296 6.62682C64.8678 7.56363 65.604 8.68286 66.0926 9.91536C66.5812 11.1479 66.8119 12.4675 66.7705 13.7926V50.4205C66.7705 63.8692 49.0648 80.0236 36.2836 86.5144L35.8293 86.7445C35.7567 86.7816 35.6762 86.8008 35.5947 86.8008Z" fill="white"/>
<path d="M36.968 80.7585C36.8545 80.7586 36.7441 80.7215 36.6537 80.6528C36.5633 80.5842 36.4979 80.4878 36.4675 80.3785C36.4371 80.2691 36.4433 80.1528 36.4853 80.0474C36.5273 79.9419 36.6026 79.8531 36.6999 79.7946C41.9913 76.5698 46.8444 72.6755 51.1388 68.2081C51.234 68.1086 51.3648 68.051 51.5025 68.048C51.6401 68.0449 51.7733 68.0967 51.8728 68.1919C51.9723 68.2871 52.0299 68.4179 52.033 68.5556C52.036 68.6932 51.9842 68.8265 51.8891 68.9259C47.5306 73.4594 42.6053 77.4115 37.2352 80.6842C37.1546 80.7329 37.0622 80.7586 36.968 80.7585Z" fill="white"/>
<path d="M35.5948 80.1029C35.78 80.1029 35.9611 80.1578 36.1151 80.2607C36.2691 80.3636 36.3891 80.5098 36.46 80.6809C36.5309 80.8521 36.5494 81.0404 36.5133 81.222C36.4772 81.4037 36.388 81.5706 36.257 81.7015C36.1261 81.8325 35.9592 81.9217 35.7775 81.9578C35.5959 81.994 35.4076 81.9754 35.2365 81.9046C35.0654 81.8337 34.9191 81.7136 34.8162 81.5596C34.7133 81.4056 34.6584 81.2246 34.6584 81.0394C34.6582 80.9163 34.6823 80.7945 34.7293 80.6808C34.7764 80.5671 34.8453 80.4639 34.9323 80.3769C35.0193 80.2899 35.1226 80.2209 35.2363 80.1739C35.3499 80.1269 35.4718 80.1028 35.5948 80.1029ZM35.5948 79.0647C35.2042 79.0647 34.8224 79.1805 34.4977 79.3975C34.173 79.6145 33.9199 79.9229 33.7704 80.2837C33.621 80.6446 33.5819 81.0416 33.6581 81.4247C33.7343 81.8077 33.9223 82.1596 34.1985 82.4357C34.4747 82.7119 34.8265 82.8999 35.2096 82.9761C35.5926 83.0523 35.9897 83.0132 36.3505 82.8638C36.7113 82.7143 37.0197 82.4612 37.2367 82.1364C37.4537 81.8117 37.5695 81.4299 37.5695 81.0394C37.5689 80.5158 37.3607 80.0139 36.9905 79.6437C36.6203 79.2735 36.1183 79.0653 35.5948 79.0647Z" fill="white"/>
<path d="M35.6028 58.3549C32.1687 58.3511 28.8764 56.9852 26.4481 54.5569C24.0199 52.1287 22.654 48.8364 22.6501 45.4023V34.7048C22.6551 31.2727 24.0219 27.9829 26.4505 25.5577C28.8791 23.1326 32.1709 21.7705 35.603 21.7705C39.0351 21.7705 42.3269 23.1326 44.7555 25.5577C47.1841 27.9829 48.551 31.2727 48.5559 34.7048V45.4023C48.5519 48.8364 47.1859 52.1287 44.7576 54.557C42.3293 56.9852 39.0369 58.3511 35.6028 58.3549ZM35.6028 22.7906C32.444 22.7941 29.4156 24.0505 27.1819 26.284C24.9483 28.5176 23.6919 31.546 23.6883 34.7048V45.4023C23.6883 48.5623 24.9436 51.5928 27.1781 53.8272C29.4125 56.0617 32.443 57.317 35.603 57.317C38.763 57.317 41.7935 56.0617 44.028 53.8272C46.2624 51.5928 47.5177 48.5623 47.5177 45.4023V34.7048C47.514 31.5459 46.2575 28.5175 44.0238 26.284C41.7901 24.0504 38.7616 22.7941 35.6028 22.7906Z" fill="white"/>
<path d="M35.6036 54.5829C34.3998 54.5817 33.2091 54.3321 32.1062 53.8495C31.0033 53.367 30.0119 52.6619 29.194 51.7786C29.1397 51.7196 29.098 51.6501 29.0716 51.5745C29.0451 51.4988 29.0345 51.4185 29.0404 51.3385C29.0459 51.2556 29.0683 51.1746 29.106 51.1005C29.1438 51.0265 29.1962 50.9609 29.2601 50.9077C29.3666 50.8179 29.5016 50.769 29.6408 50.7698C29.7263 50.7702 29.8108 50.7882 29.889 50.8226C29.9672 50.8571 30.0375 50.9073 30.0956 50.97C30.8 51.7263 31.6524 52.3297 32.5999 52.7427C33.5473 53.1557 34.5696 53.3695 35.6031 53.3709L35.6797 53.3703C37.6862 53.3137 39.5901 52.4711 40.9811 51.024C42.3722 49.5769 43.139 47.6412 43.1164 45.6341V43.0183C43.1164 42.9386 43.1321 42.8597 43.1626 42.7861C43.193 42.7125 43.2377 42.6456 43.2941 42.5893C43.3504 42.533 43.4173 42.4883 43.4909 42.4578C43.5645 42.4273 43.6434 42.4116 43.723 42.4116C43.8027 42.4116 43.8816 42.4273 43.9552 42.4578C44.0288 42.4883 44.0957 42.533 44.152 42.5893C44.2084 42.6456 44.2531 42.7125 44.2835 42.7861C44.314 42.8597 44.3297 42.9386 44.3297 43.0183V45.6239C44.352 47.8545 43.5342 50.0117 42.0389 51.667C40.5435 53.3223 38.4802 54.3543 36.2588 54.5581C36.0432 54.5748 35.8226 54.5829 35.6036 54.5829Z" fill="white"/>
<path d="M35.6028 51.0967C35.4839 51.0967 35.3643 51.0921 35.2433 51.0845C33.8974 50.9661 32.6462 50.3427 31.741 49.3396C30.8359 48.3366 30.3439 47.0281 30.3639 45.6771V34.2483C30.3639 34.1302 30.3672 34.0136 30.375 33.8975C30.3783 33.817 30.3977 33.738 30.432 33.6652C30.4662 33.5923 30.5147 33.527 30.5745 33.4731C30.6343 33.4192 30.7043 33.3778 30.7804 33.3513C30.8564 33.3248 30.937 33.3138 31.0173 33.3188C31.0977 33.3239 31.1762 33.3449 31.2484 33.3808C31.3205 33.4166 31.3847 33.4665 31.4373 33.5274C31.4899 33.5884 31.5298 33.6593 31.5546 33.7359C31.5795 33.8125 31.5887 33.8933 31.5819 33.9735C31.5723 34.1188 31.5705 34.2645 31.5766 34.41L31.5769 45.857C31.5782 46.9242 32.0027 47.9473 32.7574 48.7019C33.512 49.4565 34.5352 49.8809 35.6024 49.8821C35.6937 49.8821 35.7854 49.8795 35.878 49.8729C36.9137 49.7816 37.8763 49.3014 38.5722 48.5289C39.2681 47.7565 39.6455 46.7491 39.6286 45.7095V40.7472C39.6286 40.5863 39.6925 40.4319 39.8063 40.3182C39.92 40.2044 40.0743 40.1405 40.2352 40.1405C40.3961 40.1405 40.5505 40.2044 40.6642 40.3182C40.778 40.4319 40.8419 40.5863 40.8419 40.7472V45.8569C40.8405 47.246 40.288 48.5778 39.3058 49.5602C38.3236 50.5425 36.9919 51.0951 35.6028 51.0967Z" fill="white"/>
<path d="M27.7512 48.5481C27.6193 48.5489 27.4907 48.5062 27.3855 48.4267C27.2802 48.3472 27.204 48.2352 27.1688 48.108C26.9736 47.3737 26.8753 46.6171 26.8762 45.8573V37.5831C26.8757 37.5031 26.891 37.4238 26.9213 37.3497C26.9515 37.2757 26.9961 37.2083 27.0525 37.1515C27.1089 37.0948 27.1759 37.0497 27.2498 37.019C27.3237 36.9882 27.4029 36.9724 27.4829 36.9724C27.5629 36.9724 27.6421 36.9882 27.716 37.019C27.7899 37.0497 27.857 37.0948 27.9133 37.1515C27.9697 37.2083 28.0143 37.2757 28.0446 37.3497C28.0748 37.4238 28.0901 37.5031 28.0896 37.5831V45.8572C28.088 46.5042 28.1705 47.1486 28.3349 47.7744C28.3605 47.8647 28.3649 47.9597 28.3476 48.052C28.3303 48.1443 28.2919 48.2313 28.2353 48.3062C28.1788 48.3812 28.1056 48.442 28.0216 48.4839C27.9377 48.5259 27.8451 48.5478 27.7512 48.548V48.5481Z" fill="white"/>
<path d="M35.603 47.609C35.4858 47.6086 35.3689 47.597 35.254 47.5745C34.8497 47.4856 34.4888 47.2593 34.2327 46.9341C33.9767 46.6089 33.8413 46.2049 33.8497 45.7911V34.2483C33.8504 33.7837 34.0354 33.3384 34.364 33.0099C34.6925 32.6815 35.138 32.4968 35.6026 32.4963C35.7196 32.4967 35.8364 32.5081 35.9513 32.5303C36.3557 32.6192 36.7166 32.8455 36.9728 33.1707C37.229 33.4959 37.3645 33.8998 37.3563 34.3137V34.9742C37.3563 35.1351 37.2924 35.2895 37.1786 35.4033C37.0648 35.5171 36.9104 35.581 36.7495 35.581C36.5886 35.581 36.4342 35.5171 36.3204 35.4033C36.2066 35.2895 36.1427 35.1351 36.1427 34.9742V34.2483C36.1427 34.1051 36.0858 33.9678 35.9846 33.8665C35.8833 33.7653 35.746 33.7084 35.6028 33.7084C35.4596 33.7084 35.3223 33.7653 35.2211 33.8665C35.1198 33.9678 35.0629 34.1051 35.0629 34.2483V45.8569C35.0629 46.0001 35.1198 46.1374 35.2211 46.2387C35.3223 46.3399 35.4596 46.3968 35.6028 46.3968C35.746 46.3968 35.8833 46.3399 35.9846 46.2387C36.0858 46.1374 36.1427 46.0001 36.1427 45.8569V39.5062C36.1427 39.3452 36.2066 39.1909 36.3204 39.0771C36.4342 38.9633 36.5886 38.8994 36.7495 38.8994C36.9104 38.8994 37.0648 38.9633 37.1786 39.0771C37.2924 39.1909 37.3563 39.3452 37.3563 39.5062V45.8569C37.3556 46.3216 37.1706 46.767 36.8419 47.0954C36.5132 47.4239 36.0676 47.6086 35.603 47.609Z" fill="white"/>
<path d="M43.7228 40.5372C43.5619 40.537 43.4077 40.473 43.294 40.3593C43.1803 40.2455 43.1163 40.0913 43.1162 39.9304V34.3861C43.1314 32.3789 42.3513 30.4474 40.9465 29.0137C39.5416 27.5801 37.6262 26.761 35.6192 26.7355L35.4544 26.7365C35.2943 26.7392 35.1397 26.6782 35.0245 26.5669C34.9094 26.4556 34.8431 26.3031 34.8404 26.143C34.8377 25.9829 34.8987 25.8283 35.01 25.7131C35.1213 25.598 35.2738 25.5317 35.4339 25.529C35.5733 25.5255 35.7943 25.5239 35.8027 25.5239C38.0779 25.5886 40.239 26.5347 41.8299 28.1626C43.4208 29.7904 44.3171 31.9726 44.3296 34.2488V39.9304C44.3294 40.0913 44.2654 40.2456 44.1516 40.3593C44.0379 40.4731 43.8836 40.5371 43.7228 40.5372Z" fill="white"/>
<path d="M40.2356 37.3379C40.0747 37.3377 39.9205 37.2737 39.8067 37.1599C39.693 37.0462 39.629 36.8919 39.6288 36.7311V34.4139C39.6358 33.3285 39.2188 32.2832 38.4668 31.5005C37.7147 30.7178 36.6868 30.2595 35.602 30.2231C34.622 30.2218 33.6754 30.5792 32.9408 31.2279C32.836 31.3206 32.7008 31.3714 32.5608 31.3708C32.4047 31.37 32.2547 31.3103 32.1407 31.2036C32.079 31.1461 32.0303 31.0762 31.9976 30.9986C31.965 30.9209 31.9492 30.8371 31.9514 30.7529C31.9533 30.6666 31.9732 30.5817 32.0098 30.5036C32.0465 30.4255 32.099 30.3559 32.164 30.2992C33.0352 29.535 34.1368 29.0839 35.2938 29.0176C36.4508 28.9512 37.5968 29.2735 38.5496 29.9332C39.2695 30.4424 39.8544 31.1194 40.2539 31.9055C40.6534 32.6916 40.8553 33.5632 40.8422 34.4449V36.7311C40.8421 36.892 40.7781 37.0462 40.6644 37.16C40.5506 37.2737 40.3964 37.3377 40.2356 37.3379Z" fill="white"/>
<path d="M27.4963 34.4127C27.4129 34.4126 27.3305 34.3955 27.2539 34.3625C27.1773 34.3294 27.1083 34.2811 27.051 34.2205C26.9954 34.1626 26.9523 34.0939 26.9243 34.0187C26.8963 33.9434 26.884 33.8632 26.8883 33.7831C26.9712 32.2279 27.4688 30.7232 28.3293 29.4251C29.1897 28.127 30.3818 27.0827 31.7819 26.4006C31.8615 26.3616 31.949 26.3413 32.0377 26.3413C32.1574 26.3426 32.2742 26.3788 32.3738 26.4453C32.4734 26.5118 32.5515 26.6058 32.5986 26.716C32.6579 26.8606 32.6595 27.0224 32.6032 27.1681C32.5469 27.3139 32.4368 27.4325 32.2957 27.4997C31.0978 28.0874 30.0779 28.9834 29.3408 30.0957C28.6037 31.2079 28.176 32.4964 28.1016 33.8286C28.0942 33.9848 28.0275 34.1323 27.9149 34.2408C27.8024 34.3494 27.6527 34.4109 27.4963 34.4127Z" fill="white"/>
</g>
<defs>
<clipPath id="clip0_45_42">
<rect width="69.3524" height="90.917" fill="white" transform="translate(0.922119)"/>
</clipPath>
</defs>
</svg>
