<svg width="69" height="80" viewBox="0 0 69 80" fill="none" xmlns="http://www.w3.org/2000/svg">
<g clip-path="url(#clip0_45_98)">
<path d="M57.4706 60.781C57.362 60.781 57.2578 60.7379 57.181 60.6611C57.1041 60.5842 57.061 60.4801 57.061 60.3714V57.4184C57.061 56.4969 56.6949 55.6132 56.0434 54.9616C55.3918 54.3101 54.5081 53.944 53.5866 53.944C52.6651 53.944 51.7814 54.3101 51.1298 54.9616C50.4783 55.6132 50.1122 56.4969 50.1122 57.4184V60.3714C50.1122 60.4801 50.0691 60.5842 49.9922 60.6611C49.9154 60.7379 49.8112 60.781 49.7026 60.781C49.594 60.781 49.4898 60.7379 49.4129 60.6611C49.3361 60.5842 49.293 60.4801 49.293 60.3714V57.4184C49.293 56.2796 49.7453 55.1875 50.5505 54.3823C51.3558 53.5771 52.4479 53.1248 53.5866 53.1248C54.7253 53.1248 55.8174 53.5771 56.6227 54.3823C57.4279 55.1875 57.8802 56.2796 57.8802 57.4184V60.3714C57.8802 60.4801 57.8371 60.5842 57.7603 60.6611C57.6834 60.7379 57.5792 60.781 57.4706 60.781Z" fill="white"/>
<path d="M59.2432 60.3713H47.9338C47.7165 60.3713 47.5081 60.4577 47.3545 60.6113C47.2008 60.7649 47.1145 60.9733 47.1145 61.1906V69.264C47.114 69.3717 47.1349 69.4784 47.1759 69.578C47.2169 69.6777 47.2772 69.7682 47.3534 69.8444C47.4295 69.9205 47.52 69.9809 47.6197 70.0218C47.7193 70.0628 47.826 70.0837 47.9338 70.0832H59.2432C59.4604 70.0832 59.6688 69.9969 59.8225 69.8433C59.9761 69.6896 60.0624 69.4812 60.0624 69.264V61.1906C60.0614 60.9736 59.9748 60.7658 59.8214 60.6124C59.668 60.4589 59.4601 60.3723 59.2432 60.3713ZM53.9962 66.1992C53.9962 66.3078 53.9531 66.412 53.8763 66.4889C53.7994 66.5657 53.6952 66.6088 53.5866 66.6088C53.478 66.6088 53.3738 66.5657 53.297 66.4889C53.2201 66.412 53.177 66.3078 53.177 66.1992V63.5925C53.177 63.4839 53.2201 63.3797 53.297 63.3028C53.3738 63.226 53.478 63.1829 53.5866 63.1829C53.6952 63.1829 53.7994 63.226 53.8763 63.3028C53.9531 63.3797 53.9962 63.4839 53.9962 63.5925V66.1992Z" fill="white"/>
<path d="M27.5195 35.7939C23.9805 35.7909 20.5217 34.7388 17.5806 32.7705C14.6394 30.8021 12.3478 28.006 10.9955 24.7355C9.64322 21.465 9.29092 17.867 9.98316 14.3963C10.6754 10.9256 12.3811 7.73808 14.8846 5.23664C17.3881 2.7352 20.5771 1.03216 24.0484 0.342805C27.5196 -0.346546 31.1173 0.0087415 34.3867 1.36376C37.6561 2.71877 40.4503 5.01267 42.4162 7.95549C44.3821 10.8983 45.4313 14.3579 45.4313 17.8969C45.4264 22.6446 43.5372 27.1961 40.1787 30.5518C36.8203 33.9075 32.2671 35.7929 27.5195 35.7939ZM27.5195 1.07993C24.1934 1.07993 20.942 2.06623 18.1765 3.9141C15.4109 5.76198 13.2554 8.38844 11.9826 11.4614C10.7098 14.5343 10.3767 17.9156 11.0256 21.1778C11.6745 24.44 13.2762 27.4365 15.6281 29.7884C17.98 32.1403 20.9765 33.7419 24.2387 34.3908C27.5009 35.0397 30.8822 34.7067 33.9551 33.4338C37.028 32.161 39.6545 30.0055 41.5023 27.24C43.3502 24.4744 44.3365 21.223 44.3365 17.8969C44.3326 13.438 42.5595 9.16282 39.4066 6.00987C36.2536 2.85692 31.9784 1.08387 27.5195 1.07993Z" fill="white"/>
<path d="M14.6349 18.437C14.4917 18.437 14.3544 18.3801 14.2531 18.2789C14.1519 18.1776 14.095 18.0402 14.095 17.897C14.0989 14.3375 15.5144 10.9248 18.0311 8.40747C20.5477 5.89014 23.96 4.47368 27.5195 4.46875C27.6627 4.46875 27.8001 4.52564 27.9014 4.6269C28.0026 4.72816 28.0595 4.8655 28.0595 5.00871C28.0595 5.15192 28.0026 5.28926 27.9014 5.39052C27.8001 5.49178 27.6627 5.54867 27.5195 5.54867C24.2461 5.55262 21.1079 6.85499 18.7936 9.17001C16.4793 11.485 15.1779 14.6236 15.1749 17.897C15.1749 17.968 15.1609 18.0382 15.1338 18.1037C15.1067 18.1692 15.0669 18.2287 15.0167 18.2789C14.9666 18.329 14.9071 18.3688 14.8416 18.3959C14.7761 18.423 14.7058 18.437 14.6349 18.437Z" fill="white"/>
<path d="M35.8386 71.7255H6.33425e-07V64.4528C-0.00113376 59.1735 1.52142 54.0061 4.38489 49.5708C7.24836 45.1356 11.331 41.6211 16.1428 39.4491C20.9546 37.2772 26.291 36.5401 31.5114 37.3265C36.7318 38.1128 41.6143 40.3891 45.5728 43.8821C45.6293 43.928 45.6759 43.9849 45.7099 44.0493C45.7438 44.1137 45.7644 44.1843 45.7703 44.2569C45.7763 44.3294 45.7675 44.4024 45.7445 44.4715C45.7216 44.5406 45.6848 44.6043 45.6366 44.6589C45.5883 44.7134 45.5296 44.7576 45.4638 44.7888C45.398 44.8201 45.3266 44.8377 45.2539 44.8406C45.1811 44.8435 45.1085 44.8317 45.0405 44.8058C44.9724 44.78 44.9103 44.7406 44.8578 44.6902C41.0545 41.3364 36.3643 39.1512 31.3499 38.3969C26.3356 37.6426 21.21 38.3511 16.5884 40.4375C11.9667 42.5238 8.04515 45.8994 5.2943 50.1592C2.54345 54.4189 1.08014 59.382 1.07992 64.4528V70.6456H35.8386C35.9818 70.6456 36.1191 70.7024 36.2204 70.8037C36.3216 70.905 36.3785 71.0423 36.3785 71.1855C36.3785 71.3287 36.3216 71.4661 36.2204 71.5673C36.1191 71.6686 35.9818 71.7255 35.8386 71.7255Z" fill="white"/>
<path d="M6.80723 56.1931C6.7342 56.1926 6.66201 56.1775 6.59497 56.1484C6.52938 56.1213 6.46989 56.0812 6.41999 56.0307C6.3701 55.9802 6.33081 55.9202 6.30444 55.8543C6.27808 55.7884 6.26516 55.7178 6.26645 55.6468C6.26774 55.5759 6.28321 55.5058 6.31196 55.4409C7.63742 52.3288 9.63486 49.5484 12.1611 47.2989C14.6874 45.0495 17.68 43.3867 20.9244 42.4297C21.0627 42.3906 21.2108 42.4078 21.3364 42.4776C21.462 42.5474 21.5549 42.664 21.5947 42.8021C21.6151 42.8705 21.6216 42.9424 21.6139 43.0134C21.6061 43.0844 21.5843 43.1531 21.5496 43.2156C21.5149 43.278 21.4681 43.3329 21.4119 43.377C21.3557 43.4211 21.2912 43.4535 21.2224 43.4724C18.1335 44.3849 15.2842 45.9682 12.878 48.1093C10.4718 50.2503 8.56796 52.8962 7.30251 55.858C7.26257 55.9567 7.19413 56.0413 7.10593 56.101C7.01772 56.1607 6.91374 56.1928 6.80723 56.1931Z" fill="white"/>
</g>
<defs>
<clipPath id="clip0_45_98">
<rect width="68.5751" height="80" fill="white"/>
</clipPath>
</defs>
</svg>
